<?xml version="1.0" standalone="no"?>
<!DOCTYPE svg PUBLIC "-//W3C//DTD SVG 1.1//EN" "http://www.w3.org/Graphics/SVG/1.1/DTD/svg11.dtd" >
<svg xmlns="http://www.w3.org/2000/svg">
<metadata></metadata>
<defs>
<font id="brawlerregular" horiz-adv-x="1570" >
<font-face units-per-em="2048" ascent="1536" descent="-512" />
<missing-glyph horiz-adv-x="716" />
<glyph horiz-adv-x="2048" />
<glyph horiz-adv-x="2048" />
<glyph unicode="&#xd;" horiz-adv-x="532" />
<glyph unicode=" "  horiz-adv-x="716" />
<glyph unicode="&#x09;" horiz-adv-x="716" />
<glyph unicode="&#xa0;" horiz-adv-x="716" />
<glyph unicode="!" horiz-adv-x="747" d="M225 113q54 97 152 149q93 -52 145 -145q-58 -98 -151 -150q-96 50 -146 146zM256 1352q24 41 51.5 67.5t71.5 53.5q46 -26 70.5 -49.5t48.5 -69.5l-66 -934h-113z" />
<glyph unicode="&#x22;" horiz-adv-x="675" d="M72 1409q35 67 92 84q57 -17 92 -84l-55 -465h-74zM401 1409q35 67 93 84q57 -17 92 -84l-56 -465h-73z" />
<glyph unicode="#" horiz-adv-x="1724" d="M143 436v144h353l100 280h-350v144h401l182 501l123 -41l-166 -460h357l182 501l123 -41l-166 -460h299v-144h-352l-101 -280h351v-144h-404l-180 -504l-123 41l166 463h-358l-181 -504l-123 41l166 463h-299zM633 580h358l101 280h-359z" />
<glyph unicode="$" horiz-adv-x="1136" d="M113 68v346l102 10l76 -299q113 -46 254 -43v565q-154 65 -200 90q-153 84 -198 207q-22 60 -22 133q0 87 35 155t96 110.5t132.5 67.5t156.5 36v323h102v-319q111 0 203.5 -24.5t134.5 -63.5v-346l-102 -10l-78 305q-79 29 -158 32v-552q48 -21 82 -37t78 -41t75 -49 t63 -58t51 -70t31.5 -82.5t12.5 -99.5q0 -88 -32 -156.5t-88.5 -111t-124 -67t-148.5 -33.5v-330h-102v324q-134 -4 -258 23.5t-174 64.5zM319 1075q0 -44 16.5 -79.5t50.5 -65t69.5 -50.5t89.5 -46v501q-100 -22 -163 -88.5t-63 -171.5zM647 98q199 54 199 256 q0 88 -52 145.5t-147 102.5v-504z" />
<glyph unicode="%" horiz-adv-x="1435" d="M72 1151q0 138 70 224.5t212 86.5q144 0 214.5 -86t70.5 -225q0 -137 -70.5 -222t-212.5 -85q-143 0 -213.5 84.5t-70.5 222.5zM205 1151q0 -103 37.5 -166t113.5 -63t114 63t38 166t-38.5 168t-113.5 65q-77 0 -114 -64.5t-37 -168.5zM256 0l770 1434h154l-770 -1434 h-154zM797 287q0 138 70 224.5t212 86.5q144 0 214.5 -86t70.5 -225q0 -137 -70.5 -222t-212.5 -85q-143 0 -213.5 84.5t-70.5 222.5zM930 287q0 -103 37.5 -166.5t113.5 -63.5t114 63.5t38 166.5t-38.5 168t-113.5 65q-77 0 -114 -64.5t-37 -168.5z" />
<glyph unicode="&#x26;" horiz-adv-x="1533" d="M106 319q0 86 50 176.5t122 158t154 112.5q-78 78 -118 148.5t-40 162.5q0 119 61 207t159.5 131t220.5 43q106 0 198 -37t150 -110l-129 -264l-94 38l32 195q-66 66 -155 66q-99 0 -175.5 -68t-76.5 -168q0 -95 78 -184q24 -28 175 -208t228 -263l160 247l-141 21l20 98 h420v-61l-172 -74l-209 -315q236 -246 424 -299l-21 -72h-79q-237 79 -418 227q-15 -23 -33 -45t-60 -61.5t-88.5 -67.5t-117.5 -49.5t-148 -21.5q-171 0 -274 98t-103 239zM303 326q0 -96 58 -156.5t169 -60.5q163 0 316 192q-18 17 -36.5 34.5t-38 38.5t-34.5 36.5 t-37.5 41t-34.5 38.5t-37.5 43.5t-35 41.5t-39 46t-37.5 45q-98 -66 -155.5 -157.5t-57.5 -182.5z" />
<glyph unicode="'" horiz-adv-x="389" d="M102 1409q35 67 93 84q57 -17 92 -84l-56 -465h-73z" />
<glyph unicode="(" horiz-adv-x="747" d="M143 549q0 268 102.5 520.5t297.5 435.5l61 -45q-276 -289 -276 -911t276 -911l-61 -46q-195 183 -297.5 436t-102.5 521z" />
<glyph unicode=")" horiz-adv-x="747" d="M143 -362q277 290 277 911t-277 911l62 45q195 -183 297 -435.5t102 -520.5q0 -269 -102 -521.5t-297 -435.5z" />
<glyph unicode="*" horiz-adv-x="1015" d="M94 1108l56 170l282 -137l-29 -86zM205 799l217 225l74 -53l-148 -279zM418 1477h178l-43 -312h-90zM528 979l74 55l219 -227l-145 -102zM575 1151l285 137l51 -170l-305 -55z" />
<glyph unicode="+" horiz-adv-x="1708" d="M246 535v145h532v557h152v-557h532v-145h-532v-535h-152v535h-532z" />
<glyph unicode="," horiz-adv-x="567" d="M109 100q55 99 151 150q94 -52 146 -146q16 -68 -7.5 -167.5t-80 -185.5t-123.5 -109l-41 51q67 45 90.5 120.5t9.5 141.5q-95 50 -145 145z" />
<glyph unicode="-" horiz-adv-x="704" d="M102 399v154h500v-154h-500z" />
<glyph unicode="." horiz-adv-x="583" d="M143 113q54 97 152 149q93 -52 145 -145q-58 -98 -151 -150q-96 50 -146 146z" />
<glyph unicode="/" horiz-adv-x="1224" d="M82 -322l942 1756h170l-942 -1756h-170z" />
<glyph unicode="0" horiz-adv-x="1212" d="M92 715q0 103 12 195t37 177t66.5 152t97.5 117t132.5 77t168.5 27t168.5 -27t132.5 -77t97.5 -117t66.5 -152t37 -177t12 -195q0 -123 -17 -229.5t-55.5 -200.5t-97 -160.5t-145.5 -104.5t-197 -38t-198 38t-147 104.5t-98 160.5t-56 200.5t-17 229.5zM313 719 q0 -142 15.5 -254t49 -196.5t89 -129.5t131.5 -45q301 0 301 625q0 300 -73 464.5t-224 164.5q-99 0 -164.5 -77.5t-95 -215.5t-29.5 -336z" />
<glyph unicode="1" horiz-adv-x="1138" d="M164 1176v71q185 71 475 219h70v-1335l266 -39l-21 -92h-735v72l285 59v1116z" />
<glyph unicode="2" horiz-adv-x="1198" d="M92 0v127q93 90 245 236q121 116 172.5 166t121.5 124.5t92.5 111t50 94t33.5 106t6 116.5q0 145 -76.5 213t-193.5 68q-57 0 -123 -21t-103 -55l-81 -328l-103 21v346q81 61 210.5 105.5t223.5 44.5q103 0 187.5 -24t148.5 -72t99.5 -127t35.5 -183q0 -54 -12 -104 t-31 -95t-60.5 -101t-81 -102.5t-113.5 -120t-137.5 -133.5t-171.5 -161q-48 -45 -73 -68h600l41 183l86 -21v-346h-993z" />
<glyph unicode="3" horiz-adv-x="1239" d="M102 72v346l103 20l69 -288q89 -58 228 -58q179 0 273.5 83t94.5 247q0 102 -65.5 178.5t-190.5 101.5h-137v123h123q118 20 180 84.5t62 167.5q0 118 -80.5 196.5t-210.5 78.5q-146 0 -236 -56l-69 -288l-103 20v346q228 90 457 90q75 0 140 -11t125 -38t102 -68.5 t67 -105.5t25 -145q0 -105 -78.5 -201t-200.5 -137q65 -19 119 -48t100 -70t71.5 -98t25.5 -124q0 -111 -43 -196t-117.5 -136t-168.5 -76.5t-202 -25.5q-253 0 -463 88z" />
<glyph unicode="4" horiz-adv-x="1204" d="M61 344v55l797 1065h96v-1007h197v-113h-197v-213l195 -39l-21 -92h-600v72l222 59v213h-689zM244 457h506v671z" />
<glyph unicode="5" horiz-adv-x="1261" d="M123 61v347l102 20l70 -289q120 -55 246 -55q72 0 134 19t111.5 57t78 101.5t28.5 146.5q0 64 -22.5 121.5t-66 104.5t-116.5 74t-166 25q-19 0 -73 -4q-23 -3 -66 -6t-64 -6h-94l58 719h667l62 106l106 -26l-94 -265h-643l-33 -411q140 30 273 30q121 0 217.5 -37.5 t156 -100t90.5 -139.5t31 -161q0 -96 -30 -174t-81.5 -131t-123 -88.5t-152 -51.5t-170.5 -16q-233 0 -436 90z" />
<glyph unicode="6" horiz-adv-x="1226" d="M113 584q0 171 51.5 318t136 247.5t192.5 172t221.5 104t223.5 30.5l37 -92q-91 -7 -176.5 -32.5t-168.5 -76.5t-144.5 -122.5t-99.5 -179.5t-38 -238q75 71 171 107t192 36q86 0 162 -25t137 -73.5t97 -128.5t36 -182q0 -126 -62.5 -234t-175.5 -173t-250 -65 q-258 0 -400 157.5t-142 449.5zM338 614q0 -245 79.5 -385.5t235.5 -140.5q128 0 196.5 93t68.5 249q0 146 -83.5 226.5t-211.5 80.5q-74 0 -149 -32t-136 -91z" />
<glyph unicode="7" horiz-adv-x="1126" d="M154 1049v415h911v-100q-278 -600 -582 -1364h-235q310 667 651 1280h-567l-72 -254z" />
<glyph unicode="8" horiz-adv-x="1208" d="M121 332q0 271 295 407q-103 54 -166.5 150t-63.5 201q0 71 31.5 138t88 119.5t144.5 84.5t193 32q115 0 207 -37t149.5 -115t57.5 -186q0 -241 -248 -364q42 -22 72 -39.5t70.5 -44.5t68 -56t53 -64.5t38.5 -79.5t13 -93q0 -102 -44 -183.5t-117.5 -131t-163 -75.5 t-187.5 -26q-96 0 -182 21.5t-156 64t-111.5 114t-41.5 163.5zM336 362q0 -72 24.5 -127t66.5 -87t92 -48t106 -16q115 0 200.5 64.5t85.5 175.5q0 31 -5.5 59t-13 50t-24.5 44t-30 37t-39.5 33.5t-43.5 29.5t-52 28t-54 25.5t-60.5 27.5t-62.5 28q-78 -39 -134 -129.5 t-56 -194.5zM397 1124q0 -135 103 -204q103 -66 202 -109q71 66 105.5 140.5t34.5 178.5q0 106 -60 163t-155 57q-97 0 -163.5 -60t-66.5 -166z" />
<glyph unicode="9" horiz-adv-x="1239" d="M106 985q0 94 37 180.5t101 150.5t155.5 102t194.5 38q258 0 400.5 -157t142.5 -449q0 -171 -51.5 -318t-136 -247.5t-193 -172.5t-222 -104.5t-223.5 -30.5l-37 93q91 7 176.5 32.5t168.5 76.5t144.5 122.5t99.5 179.5t38 238q-75 -71 -170.5 -107.5t-191.5 -36.5 q-86 0 -162.5 25t-138 74t-97 129t-35.5 182zM332 1004q0 -146 83.5 -227t211.5 -81q74 0 148.5 32t135.5 91q0 245 -79.5 386t-235.5 141q-127 0 -195.5 -93t-68.5 -249z" />
<glyph unicode=":" horiz-adv-x="624" d="M164 113q54 98 151 149q95 -53 146 -145q-57 -97 -152 -150q-94 49 -145 146zM164 915q55 99 151 150q95 -53 146 -145q-57 -97 -152 -150q-95 50 -145 145z" />
<glyph unicode=";" horiz-adv-x="659" d="M190 100q55 98 152 150q92 -51 145 -146q16 -68 -7.5 -167.5t-80 -185.5t-123.5 -109l-40 51q67 45 90.5 120.5t9.5 141.5q-97 51 -146 145zM190 915q55 98 152 150q93 -52 145 -145q-58 -98 -151 -150q-97 51 -146 145z" />
<glyph unicode="&#x3c;" horiz-adv-x="1738" d="M246 553v127l1247 506v-160l-1036 -410l1036 -409v-160z" />
<glyph unicode="=" horiz-adv-x="1708" d="M246 354v146h1216v-146h-1216zM246 739v146h1216v-146h-1216z" />
<glyph unicode="&#x3e;" horiz-adv-x="1738" d="M246 47v160l1036 409l-1036 410v160l1247 -506v-127z" />
<glyph unicode="?" horiz-adv-x="980" d="M117 1370q160 88 364 88q72 0 134.5 -16.5t113 -49t80 -87t29.5 -125.5q0 -72 -21 -131t-55 -98.5t-75 -72.5t-81.5 -59t-74.5 -50.5t-55 -54.5t-21 -65q0 -100 90 -100q53 0 80 74l73 -58q-22 -61 -65 -92t-82 -37q-109 -14 -178.5 47t-69.5 181q0 49 34.5 99.5t83.5 94 l98 87t83.5 96.5t34.5 106q0 94 -60 145t-147 51q-73 0 -133 -32l-16 -213l-101 -15zM344 113q54 97 152 149q93 -52 145 -145q-57 -97 -152 -150q-94 49 -145 146z" />
<glyph unicode="@" horiz-adv-x="1673" d="M23 578q0 137 35.5 267.5t110 248t180 205.5t255 140t324.5 52q143 0 261.5 -39t199.5 -104.5t136.5 -154.5t81 -187t25.5 -203q0 -129 -38.5 -247.5t-108.5 -210.5t-176 -147t-232 -55q-39 0 -67 4q-11 2 -23 39q-7 18 -10 35l51 262q-21 -39 -47 -80.5t-65 -94.5 t-77.5 -94t-84 -69t-84.5 -28q-108 0 -177 83t-69 246q0 139 44 267.5t114 217.5t157.5 142t173.5 53q128 0 183 -104l10 78h154l-130 -838q125 13 217.5 94t136.5 196.5t44 246.5q0 266 -163.5 425.5t-444.5 159.5q-216 0 -388 -103.5t-267 -282.5t-95 -398q0 -176 56 -319 t151.5 -233.5t217.5 -138.5t259 -48q265 0 549 121q9 -30 14 -39q3 -10 6.5 -20t6 -15t2.5 -6q-77 -45 -241.5 -96.5t-338.5 -51.5q-188 0 -345.5 65.5t-262.5 177.5t-163 262t-58 319zM604 481q0 -32 4.5 -61.5t14.5 -59t30.5 -47.5t48.5 -18q70 0 133 60t103.5 145 t70.5 178.5t43 160t13 89.5q0 39 -29 61.5t-88 22.5q-73 0 -134 -42.5t-98.5 -105.5t-64 -138t-37 -137.5t-10.5 -107.5z" />
<glyph unicode="A" horiz-adv-x="1380" d="M-20 0v72l145 51l493 1311h150l500 -1307l143 -35l-20 -92h-471v72l145 45l-131 334h-563l-125 -328l166 -31l-21 -92h-411zM412 563h481l-242 633z" />
<glyph unicode="B" horiz-adv-x="1308" d="M72 0v72l194 59v1172l-194 38l20 93h582q225 0 350 -94t125 -269q0 -73 -27.5 -131.5t-74.5 -94t-98.5 -57t-110.5 -30.5v-10q71 -2 137.5 -25.5t121 -64.5t87.5 -106.5t33 -145.5q0 -116 -37 -196t-110.5 -125.5t-169 -65t-226.5 -19.5h-602zM471 113h203q87 0 152 24 t102 66t55 92t18 108q0 113 -80 198t-219 85h-231v-573zM471 788h236q89 0 158 72t69 203q0 122 -68 190t-192 68h-203v-533z" />
<glyph unicode="C" horiz-adv-x="1343" d="M92 715q0 169 62.5 310.5t168.5 234.5t243.5 144.5t289.5 51.5q193 0 377 -84v-346l-103 -20l-69 288q-79 49 -240 49q-101 0 -192 -39t-163.5 -113.5t-115.5 -197.5t-43 -278q0 -168 42.5 -291t118 -193t168 -102.5t204.5 -32.5q119 0 233 56l74 313l104 -21v-346 q-111 -54 -217 -85t-243 -31q-142 0 -267 48t-222 137.5t-153.5 231t-56.5 316.5z" />
<glyph unicode="D" horiz-adv-x="1482" d="M72 0v72l194 59v1172l-194 38l20 93h584q173 0 311 -57t225.5 -156.5t133 -229t45.5 -278.5q0 -148 -48 -277t-137 -226.5t-225.5 -153.5t-304.5 -56h-604zM471 113h170q252 0 393.5 160.5t141.5 439.5q0 288 -131 448t-404 160h-170v-1208z" />
<glyph unicode="E" horiz-adv-x="1273" d="M72 0v72l194 59v1172l-194 38l20 93h1047v-336l-103 -21l-65 244h-500v-520l346 8l55 137l72 -20v-363l-57 -20l-70 135l-346 10v-575h539l65 237l107 -22v-328h-1110z" />
<glyph unicode="F" horiz-adv-x="1200" d="M72 0v72l194 59v1172l-194 38l20 93h1047v-347l-103 -20l-65 254h-500v-520l346 8l55 137l72 -20v-363l-57 -20l-70 135l-346 10v-557l234 -39l-21 -92h-612z" />
<glyph unicode="G" horiz-adv-x="1466" d="M92 715q0 151 41.5 276t114.5 211.5t173 145.5t215 86.5t243 27.5q211 0 411 -90v-346l-104 -20l-70 288q-79 49 -239 49q-124 0 -227 -38.5t-180 -114.5t-120 -197t-43 -278q0 -134 32.5 -242.5t85 -178t122.5 -116.5t140.5 -66.5t143.5 -19.5q114 0 254 53v371l-204 39 v72h524v-72l-115 -37v-416q-246 -122 -487 -122q-142 0 -269 48t-226 138t-157.5 232t-58.5 317z" />
<glyph unicode="H" horiz-adv-x="1638" d="M72 0v72l194 59v1172l-194 38l20 93h574v-72l-195 -59v-517h696v517l-194 38l20 93h574v-72l-195 -59v-1172l195 -39l-21 -92h-573v72l194 59v543h-696v-543l195 -39l-21 -92h-573z" />
<glyph unicode="I" horiz-adv-x="737" d="M72 0v72l194 59v1172l-194 38l20 93h574v-72l-195 -59v-1172l195 -39l-21 -92h-573z" />
<glyph unicode="J" horiz-adv-x="915" d="M31 55v336l106 21l74 -303q61 -21 113 -21q45 0 78.5 12.5t54.5 39t34 56t19 75t8 83t2 92.5v89v768l-194 38l20 93h559v-72l-180 -59v-752q0 -177 -13 -251q-21 -130 -91 -214q-99 -113 -267 -113q-156 0 -323 82z" />
<glyph unicode="K" horiz-adv-x="1400" d="M72 0v72l194 59v1172l-194 38l20 93h533v-72l-154 -59v-519h184l392 537l-132 20l21 93h412v-72l-174 -57l-379 -517l442 -659l195 -37l-21 -92h-334l-450 672h-156v-541l174 -39l-20 -92h-553z" />
<glyph unicode="L" horiz-adv-x="1140" d="M61 0v72l195 59v1172l-195 38l21 93h594v-72l-215 -59v-1190h467l69 295l103 -21v-387h-1039z" />
<glyph unicode="M" horiz-adv-x="1935" d="M61 0v72l195 59v1172l-193 38l21 93h362l517 -1024l503 1024h398v-72l-195 -59v-1172l195 -39l-21 -92h-571v72l192 57v1032l-506 -1030h-71l-508 1004v-1004l194 -39l-20 -92h-492z" />
<glyph unicode="N" horiz-adv-x="1595" d="M61 0v72l195 59v1172l-195 38l21 93h297l838 -1112v981l-193 38l20 93h490v-72l-195 -59v-1303h-122l-838 1114v-983l194 -39l-20 -92h-492z" />
<glyph unicode="O" d="M92 719q0 154 48.5 289.5t136 236.5t218.5 159t289 58q132 0 245.5 -40t195 -110t139.5 -164.5t86.5 -204t28.5 -228.5q0 -207 -82.5 -375t-242 -268.5t-368.5 -100.5q-165 0 -299.5 61.5t-219 165.5t-130 238t-45.5 283zM307 754q0 -104 18 -199.5t57.5 -182t97 -150 t142.5 -101t187 -37.5q132 0 237.5 84t161.5 219.5t56 292.5q0 104 -18 199.5t-57.5 182t-97 150t-142.5 101t-187 37.5q-132 0 -237.5 -84t-161.5 -219.5t-56 -292.5z" />
<glyph unicode="P" horiz-adv-x="1228" d="M72 0v72l194 59v1172l-194 38l20 93h510q62 0 110.5 -3t110 -13.5t107.5 -28.5t93 -51.5t76.5 -79.5t48.5 -115t19 -156q0 -88 -24 -158t-67.5 -116t-96.5 -77.5t-120 -48t-128 -23.5t-129 -7h-131v-426l236 -39l-21 -92h-614zM471 670h131q60 0 103.5 5t93 23.5 t80.5 51.5t52 93t21 144q0 334 -350 334h-131v-651z" />
<glyph unicode="Q" horiz-adv-x="1603" d="M92 719q0 154 48.5 289.5t136 236.5t218.5 159t289 58q132 0 245.5 -40t195 -110t139.5 -164.5t86.5 -204t28.5 -228.5q0 -268 -138.5 -466.5t-377.5 -256.5q43 -66 113 -109t147.5 -58.5t150 -15.5t137.5 13v-76q-103 -42 -213 -53q-38 -4 -76 -4q-72 0 -142 14 q-106 21 -198.5 90t-146.5 180q-124 8 -229 51.5t-180.5 114t-128.5 163t-79 198t-26 219.5zM307 754q0 -104 18 -199.5t57.5 -182t97 -150t142.5 -101t187 -37.5q132 0 237.5 84t161.5 219.5t56 292.5q0 104 -18 199.5t-57.5 182t-97 150t-142.5 101t-187 37.5 q-132 0 -237.5 -84t-161.5 -219.5t-56 -292.5z" />
<glyph unicode="R" horiz-adv-x="1376" d="M72 0v72l194 59v1172l-194 38l20 93h510q60 0 111 -3.5t112 -14.5t109 -30t95.5 -52.5t78.5 -78t50.5 -110.5t19.5 -148q0 -135 -71.5 -224t-188.5 -132l313 -516l166 -33l-21 -92h-309l-348 594q-61 -6 -117 -6h-131v-457l195 -39l-21 -92h-573zM471 700h131q58 0 105 6 t96.5 25t83 50.5t55 86.5t21.5 129q0 324 -361 324h-131v-621z" />
<glyph unicode="S" horiz-adv-x="1142" d="M113 68v335l102 21l76 -289q115 -43 223 -43q63 0 114.5 13t95 41.5t67.5 81.5t24 126q0 59 -23.5 106t-63.5 78.5t-92 58t-109 50t-114 48.5t-109 59t-92 76t-63.5 105t-23.5 142q0 100 45.5 175t121.5 116.5t162.5 61.5t182.5 20q114 0 205.5 -23.5t132.5 -64.5v-336 l-103 -20l-77 297q-84 34 -168 34q-124 0 -205.5 -67t-81.5 -195q0 -64 38 -114.5t99 -84.5t134.5 -66.5t147 -71t134.5 -86.5t99 -124t38 -174q0 -84 -29.5 -150t-77.5 -107.5t-115.5 -68.5t-137 -37.5t-148.5 -10.5q-128 0 -247.5 27t-161.5 61z" />
<glyph unicode="T" horiz-adv-x="1284" d="M41 1047v387h1202v-387l-102 -21l-68 295h-325v-1190l194 -39l-20 -92h-574v72l195 59v1190h-332l-68 -295z" />
<glyph unicode="U" horiz-adv-x="1542" d="M61 1341l21 93h573v-72l-194 -59v-828q0 -190 99.5 -286.5t287.5 -96.5q73 0 130 15.5t93.5 35.5t62 61t38 70.5t19 86t7 85t0.5 90.5v29l-4 738l-195 38l21 93h491v-72l-174 -59v-781q0 -56 -4.5 -106t-18.5 -106.5t-36.5 -102t-61 -89t-89 -73t-124 -47.5t-163.5 -18 q-295 0 -439.5 118t-144.5 379v826z" />
<glyph unicode="V" horiz-adv-x="1329" d="M-51 1341l20 93h494v-72l-154 -45l406 -1049l366 1043l-176 30l21 93h444v-72l-160 -57l-460 -1305h-142l-502 1303z" />
<glyph unicode="W" horiz-adv-x="2154" d="M0 1341l20 93h521v-72l-176 -49l299 -991l383 1112h116l350 -1117l342 992l-180 32l21 93h458v-72l-169 -53l-449 -1309h-127l-346 1102l-381 -1102h-125l-393 1305z" />
<glyph unicode="X" horiz-adv-x="1323" d="M-20 0v72l161 55l430 578l-387 598l-170 38l21 93h516v-72l-145 -41l307 -473l334 471l-144 22l21 93h419v-72l-157 -53l-406 -566l398 -612l159 -39l-20 -92h-498v72l139 39l-317 489l-358 -485l149 -23l-20 -92h-432z" />
<glyph unicode="Y" horiz-adv-x="1290" d="M-31 1341l21 93h502v-72l-144 -41l357 -557l339 553l-151 24l20 93h428v-72l-165 -57l-402 -652v-522l195 -39l-21 -92h-573v72l194 59v479l-440 693z" />
<glyph unicode="Z" horiz-adv-x="1249" d="M92 0v100l785 1221h-582l-78 -295l-102 21l2 387h999v-105l-780 -1216h633l75 288l103 -20v-381h-1055z" />
<glyph unicode="[" horiz-adv-x="686" d="M287 -305v1812h327v-92h-163v-1628h163v-92h-327z" />
<glyph unicode="\" horiz-adv-x="1224" d="M31 1434h170l942 -1756h-170z" />
<glyph unicode="]" horiz-adv-x="686" d="M72 -213h164v1628h-164v92h327v-1812h-327v92z" />
<glyph unicode="^" horiz-adv-x="2031" d="M410 821l503 645h205l504 -645h-113l-493 514l-494 -514h-112z" />
<glyph unicode="_" horiz-adv-x="1052" d="M-61 -182h1175v-156h-1175v156z" />
<glyph unicode="`" horiz-adv-x="1079" d="M231 1536h201l219 -344h-112z" />
<glyph unicode="a" horiz-adv-x="1099" d="M92 252q0 106 54 169t184 97q200 53 397 74v168q0 109 -57.5 160t-151.5 51q-113 0 -192 -29l-58 -233l-106 18v266q203 90 366 90q84 0 150.5 -16.5t120 -53t83 -101.5t29.5 -154v-629l148 -35l-21 -94h-311v166q-62 -74 -168 -128t-194 -54q-114 0 -193.5 72t-79.5 196 zM297 268q0 -89 41.5 -122t112.5 -33q70 0 153.5 50.5t122.5 108.5v234q-173 -20 -262 -45q-168 -46 -168 -193z" />
<glyph unicode="b" horiz-adv-x="1224" d="M20 1487l365 49v-588q150 133 324 133q87 0 165.5 -36t138 -100t95 -160.5t35.5 -209.5q0 -152 -44.5 -269t-124 -188.5t-183 -108t-226.5 -36.5q-92 0 -190 20.5t-174 59.5v1311l-170 33zM385 145q118 -59 219 -59q154 0 245 119.5t91 312.5q0 188 -79.5 297t-215.5 109 q-117 0 -260 -90v-689z" />
<glyph unicode="c" horiz-adv-x="1019" d="M82 532q0 127 46 233t122.5 174.5t173.5 106t203 37.5q174 0 325 -96v-272l-102 -21l-57 242q-90 35 -160 35q-152 0 -249 -121t-97 -303q0 -84 21 -160.5t62.5 -138.5t109.5 -98.5t155 -36.5q71 0 154.5 27t144.5 73l45 -78q-166 -158 -383 -158q-105 0 -198 37.5 t-163.5 106.5t-111.5 175.5t-41 235.5z" />
<glyph unicode="d" horiz-adv-x="1239" d="M82 498q0 128 44.5 237.5t117.5 182t167 113t193 40.5q129 0 242 -70v363l-170 33l-10 90l362 49v-1407l139 -35l-20 -94h-301v117q-146 -133 -320 -133q-85 0 -165 37t-142 102.5t-99.5 163.5t-37.5 211zM287 541q0 -120 27 -212t91 -151t160 -59q65 0 141 33.5 t140 89.5v608q-103 106 -228 106q-133 0 -232 -118t-99 -297z" />
<glyph unicode="e" horiz-adv-x="1105" d="M82 537q0 130 43.5 236.5t115 172t157.5 100.5t177 35q439 0 439 -532h-727q0 -198 102.5 -316t261.5 -118q148 0 301 100l45 -78q-198 -155 -415 -155q-102 0 -192 37.5t-159 106.5t-109 175.5t-40 235.5zM293 659h516q0 152 -70 232t-170 80q-105 0 -188.5 -85 t-87.5 -227z" />
<glyph unicode="f" horiz-adv-x="747" d="M72 0v61l178 62v792h-178v113h178l2 152q0 79 21 142.5t55.5 105.5t81.5 70t97.5 40t104.5 12q64 0 138 -18t131 -51v-273l-103 -20l-57 225q-52 25 -109 25q-95 0 -136.5 -57t-41.5 -203v-150h273v-113h-273v-788l228 -29l-21 -98h-569z" />
<glyph unicode="g" horiz-adv-x="1196" d="M72 -233q0 74 44.5 131t133.5 116q-82 58 -82 156q0 55 38.5 111.5t106.5 97.5q-204 93 -204 315q0 100 35.5 177t97.5 122.5t138 68.5t163 23q168 0 274 -84q56 0 203 11q40 2 145 10v-141l-256 6q39 -79 39 -193q0 -98 -33.5 -171t-92 -113.5t-127.5 -60t-150 -19.5 q-71 0 -131 14q-84 -63 -84 -135q0 -37 34 -60t99 -24h385q124 -4 184 -63t60 -152q0 -95 -55 -175.5t-143.5 -132t-196.5 -80t-218 -28.5q-190 0 -298.5 68.5t-108.5 204.5zM260 -178q0 -209 307 -209q147 0 266 68t119 157q0 62 -43 87.5t-159 25.5h-244q-104 0 -178 26 q-68 -80 -68 -155zM313 700q0 -117 58 -187.5t178 -70.5q99 0 146.5 68t47.5 184q0 123 -55 203t-160 80q-103 0 -159 -78t-56 -199z" />
<glyph unicode="h" horiz-adv-x="1265" d="M41 0v61l180 62v1247l-170 33l-10 84l365 49v-625q66 81 165 126.5t189 45.5q309 0 309 -376l2 -580l164 -35l-21 -92h-485v61l158 62v543q0 100 -23 155.5t-63.5 74.5t-110.5 19q-84 0 -164.5 -29t-119.5 -75v-684l153 -29l-20 -98h-498z" />
<glyph unicode="i" horiz-adv-x="641" d="M72 0v61l180 62v792l-166 31l-10 84l360 49v-952l154 -29l-21 -98h-497zM184 1378q53 90 144 142q89 -47 137 -138q-51 -87 -143 -141q-90 49 -138 137z" />
<glyph unicode="j" horiz-adv-x="577" d="M-174 -135l102 20l58 -223q62 -24 104 -24q37 0 64 17.5t41 43t22 66t10 73t2 78.5v999l-166 31l-10 84l361 49v-1167q0 -92 -29.5 -167t-79.5 -123.5t-114 -74.5t-134 -26q-124 0 -231 71v273zM164 1378q54 91 143 142q89 -47 137 -138q-51 -87 -143 -141 q-89 48 -137 137z" />
<glyph unicode="k" horiz-adv-x="1157" d="M41 0v61l180 62v1249l-166 31l-10 84l361 49v-1026l395 401l-131 21l20 98h451v-61l-197 -74l-242 -238l340 -532l146 -27l-21 -98h-264l-336 526l-161 -159v-240l153 -29l-20 -98h-498z" />
<glyph unicode="l" horiz-adv-x="651" d="M61 0v61l181 62v1249l-166 31l-10 84l360 49v-1409l174 -29l-20 -98h-519z" />
<glyph unicode="m" horiz-adv-x="1908" d="M72 1030l362 49v-168q66 83 161.5 127.5t186.5 44.5q193 0 265 -213q68 97 167 155t197 58q132 0 216.5 -99.5t84.5 -287.5v-569l166 -35l-20 -92h-478v61l148 62v573q0 109 -60.5 164t-146.5 55q-148 0 -248 -133v-655l158 -35l-21 -92h-469v61l148 62v573 q0 111 -56 165t-147 54q-68 0 -140 -29t-112 -75v-684l146 -29l-21 -98h-485v61l178 62v784l-170 33z" />
<glyph unicode="n" horiz-adv-x="1294" d="M72 1030l362 49v-168q66 81 165 126.5t189 45.5q151 0 229.5 -91.5t82.5 -284.5v-580l164 -35l-21 -92h-485v61l157 62v543q0 147 -45.5 198t-150.5 51q-84 0 -165 -29t-120 -75v-684l156 -29l-21 -98h-495v61l178 62v784l-170 33z" />
<glyph unicode="o" horiz-adv-x="1216" d="M82 528q0 105 34.5 203.5t97 178t161 127.5t217.5 48q133 0 239.5 -46t171 -123.5t98.5 -173.5t34 -201t-34.5 -203.5t-97 -178t-161 -127.5t-217.5 -48q-133 0 -239.5 46t-171 123.5t-98.5 173.5t-34 201zM287 551q0 -71 10 -134t34.5 -123t62 -103t96.5 -69t133 -26 q64 0 116 23.5t87 63.5t59 94.5t34.5 114.5t10.5 126q0 71 -10 134t-34.5 123t-62 103t-96.5 69t-133 26q-64 0 -116 -23.5t-87 -63.5t-59 -94.5t-34.5 -114.5t-10.5 -126z" />
<glyph unicode="p" horiz-adv-x="1236" d="M51 -399l178 61v1245l-166 33l-10 90l361 49v-133q151 137 323 137q177 0 297.5 -145t120.5 -373q0 -159 -59.5 -288t-172 -205t-257.5 -76q-119 0 -252 53v-383l196 -28l-20 -99h-539v62zM414 203q137 -94 250 -94q133 0 210.5 121t77.5 300q0 184 -73 291t-201 107 q-127 0 -264 -101v-624z" />
<glyph unicode="q" horiz-adv-x="1177" d="M82 451q0 290 160.5 458t429.5 168q147 0 327 -59l2 -1352l156 -28l-20 -99h-529v62l209 61l-2 440q-136 -125 -307 -125q-84 0 -161 33.5t-136 93.5t-94 150.5t-35 196.5zM287 479q0 -163 80 -262.5t206 -99.5q98 0 242 94v731q-85 23 -160 23q-77 0 -139 -25t-104 -69 t-70.5 -106t-41.5 -133t-13 -153z" />
<glyph unicode="r" horiz-adv-x="907" d="M72 1030l362 49v-168q158 168 318 168q68 0 135 -28v-275l-107 -18l-55 155q-10 2 -41 2q-68 0 -139 -29t-111 -75v-684l189 -29l-21 -98h-528v61l178 62v784l-170 33z" />
<glyph unicode="s" horiz-adv-x="942" d="M96 49v275l107 18l55 -203q61 -26 100 -36.5t95 -10.5q97 0 153 42q58 43 58 136q0 36 -16 65q-18 31 -49.5 53.5t-72.5 42t-86.5 38t-91.5 38.5t-87.5 46t-73.5 57.5t-51 77t-19 100.5q0 76 38 134.5t102 91.5t136.5 49t151.5 16q88 0 160.5 -18t103.5 -49v-256 l-107 -19l-55 209q-71 21 -141 21q-199 0 -199 -148q0 -50 30.5 -89t78.5 -65.5t106.5 -50.5t117.5 -51.5t107 -60.5t78.5 -85.5t30.5 -119.5q0 -87 -33.5 -151t-92.5 -99t-128 -51t-151 -16q-199 0 -355 69z" />
<glyph unicode="t" horiz-adv-x="804" d="M61 915v72l172 62l72 225h103v-246h327v-113h-327v-602q0 -117 21.5 -155.5t96.5 -38.5q92 0 209 71l39 -49q-47 -73 -136.5 -119.5t-182.5 -46.5q-127 0 -179.5 76.5t-52.5 212.5v651h-162z" />
<glyph unicode="u" horiz-adv-x="1304" d="M61 975l21 92h328v-666q0 -147 45.5 -198t150.5 -51q84 0 165 29t120 75v684l-156 29l21 98h317v-940l166 -37l-22 -90h-326v156q-66 -81 -165 -126.5t-189 -45.5q-309 0 -312 376v580z" />
<glyph unicode="v" horiz-adv-x="1124" d="M-10 973l20 92h471v-61l-147 -52l276 -704l279 698l-146 21l21 98h391v-61l-147 -62l-375 -942h-121l-375 946z" />
<glyph unicode="w" horiz-adv-x="1662" d="M-10 973l20 92h469v-61l-160 -52l261 -673l251 786h84l299 -778l179 659l-142 21l21 98h391v-61l-156 -62l-254 -942h-114l-289 752l-242 -752h-110l-359 946z" />
<glyph unicode="x" horiz-adv-x="1179" d="M31 0v61l149 52l316 422l-281 403l-158 35l21 92h463v-61l-121 -37l211 -303l217 286l-115 17l21 98h391v-61l-166 -64l-281 -373l306 -438l165 -37l-20 -92h-457v61l109 37l-238 340l-244 -327l136 -13l-21 -98h-403z" />
<glyph unicode="y" horiz-adv-x="1093" d="M-10 973l20 92h439v-61l-123 -52l254 -628l12 -58l282 680l-124 21l20 98h365v-61l-134 -60q-70 -172 -180 -426t-145 -342q-5 -13 -21.5 -54t-21.5 -54t-19.5 -48.5t-20 -49.5t-18 -44t-19.5 -45t-17.5 -38.5t-18.5 -39.5l-17 -34t-18 -33q-112 -207 -319 -207 q-64 0 -131 20l57 170q60 -14 121 -14q27 0 50 4.5t39.5 10t33 19.5t26.5 23.5t24 32t20.5 34.5t21.5 41.5t23 43.5q2 6 21 51t28 70l-369 903z" />
<glyph unicode="z" horiz-adv-x="1026" d="M92 0v59l588 893h-424l-55 -219l-107 19l-2 313h844v-59l-590 -893h436l56 217l106 -19v-311h-852z" />
<glyph unicode="{" horiz-adv-x="874" d="M102 553v68h84q146 0 146 170v380q0 57 9 103t25.5 77.5t39 55.5t49.5 37t57.5 22t62 11t64 4t62.5 0h30v-66q-42 0 -80.5 -9.5t-73 -30t-55 -57.5t-20.5 -87v-414q0 -51 -18 -95.5t-43 -71.5t-47 -43t-36 -19q13 -3 35.5 -19.5t47.5 -44t43 -72.5t18 -94v-413 q0 -75 59 -131t170 -56v-65q-399 -31 -399 309v381q0 170 -146 170h-84z" />
<glyph unicode="|" horiz-adv-x="964" d="M410 -502v2091h145v-2091h-145z" />
<glyph unicode="}" horiz-adv-x="874" d="M102 -242q111 0 170.5 56t59.5 131v413q0 92 53.5 157.5t89.5 72.5q-14 3 -36 19t-47 43t-42.5 71.5t-17.5 95.5v414q0 50 -20.5 87t-55 57.5t-73.5 30t-81 9.5v66q131 0 173 -6q153 -21 201 -144q26 -66 26 -160v-380q0 -170 145 -170h84v-68h-84q-145 0 -145 -170v-381 q0 -340 -400 -309v65z" />
<glyph unicode="~" horiz-adv-x="1331" d="M139 596q19 19 108.5 78t145.5 76q105 39 318 -58q15 -6 47.5 -20.5t52 -22t45 -13.5t43.5 -3q24 3 111 49l82 45l77 -76q-20 -20 -112 -79.5t-148 -77.5q-115 -39 -319 57q-15 6 -47 20.5t-51.5 22t-45.5 13.5t-45 3q-43 -14 -108 -49l-82 -45z" />
<glyph unicode="&#xa1;" horiz-adv-x="747" d="M225 1331q50 96 146 146q93 -52 151 -150q-52 -93 -145 -145q-98 52 -152 149zM256 92l63 932h113l66 -934q-24 -46 -48.5 -69.5t-70.5 -49.5q-44 27 -71.5 53.5t-51.5 67.5z" />
<glyph unicode="&#xa2;" horiz-adv-x="999" d="M72 537q0 125 36 225.5t99.5 166.5t145 105t177.5 49v142h103v-140q164 -9 309 -94v-282l-102 -11l-52 201q-37 63 -155 72v-858q71 2 151.5 28.5t139.5 71.5l45 -78q-147 -138 -336 -153v-140h-103v138q-198 18 -328 167t-130 390zM272 541q0 -181 72.5 -285t185.5 -131 v842q-258 -39 -258 -426z" />
<glyph unicode="&#xa3;" horiz-adv-x="1140" d="M61 0v72l195 59q84 128 84 287q0 72 -27 211h-192v112h170q-35 163 -35 252q0 92 25 165.5t66.5 121t99 79t119.5 45t130 13.5q98 0 190.5 -26t155.5 -68v-272l-102 -21l-57 227q-25 22 -76.5 35t-99.5 13q-107 0 -177.5 -72t-70.5 -217q0 -95 28 -275h396v-112h-379 q12 -110 12 -162q0 -205 -119 -354h570l43 178l86 18v-309h-1035z" />
<glyph unicode="&#xa4;" horiz-adv-x="1087" d="M92 266l150 148q-74 99 -74 221q0 112 70 215l-146 145l92 92l148 -145q95 66 209 66q120 0 213 -68l149 147l92 -92l-149 -149q65 -94 65 -211q0 -125 -69 -217l153 -152l-92 -92l-155 154q-91 -64 -207 -64q-115 0 -203 60l-154 -150zM303 635q0 -98 70 -167t168 -69 t166.5 69t68.5 167t-68.5 167.5t-166.5 69.5t-168 -69.5t-70 -167.5z" />
<glyph unicode="&#xa5;" horiz-adv-x="1249" d="M-31 1341l21 93h471v-72l-133 -41l358 -561l344 557l-121 24l21 93h360v-72l-135 -57l-401 -652v-86h297v-82h-297v-102h297v-82h-297v-170l194 -39l-20 -92h-574v72l195 59v170h-295v82h295v102h-295v82h295v43l-440 693z" />
<glyph unicode="&#xa6;" horiz-adv-x="1144" d="M489 391h146v-788h-146v788zM489 616v789h146v-789h-146z" />
<glyph unicode="&#xa7;" horiz-adv-x="1333" d="M248 625q0 98 36 168t122 137q-123 123 -123 268q0 76 44.5 134.5t116 91.5t150 49t158.5 16q88 0 160.5 -18.5t103.5 -49.5v-245l-107 -9l-55 197q-67 20 -141 20q-58 0 -110.5 -14t-93 -50.5t-40.5 -90.5q0 -43 32.5 -88t85 -86t116 -84.5t128.5 -91.5t119.5 -98 t91 -113t41.5 -129q2 -23 2 -58q0 -99 -35.5 -169.5t-121.5 -137.5q123 -126 123 -268q0 -76 -44.5 -134.5t-116 -91.5t-150 -49t-158.5 -16q-88 0 -161 18.5t-104 49.5v245l107 9l55 -197q71 -21 142 -21q57 0 109.5 14t93 51t40.5 91q0 43 -32.5 88t-85 86t-116 84.5 t-128.5 91.5t-119.5 98t-91 113t-41.5 129q-2 23 -2 60zM406 684q0 -53 27 -101.5t78.5 -93t102.5 -80t124.5 -85t119.5 -86.5q44 46 57 84t13 98q0 53 -27.5 101.5t-78.5 92t-104 79.5t-124.5 85t-118.5 88q-44 -47 -56.5 -85.5t-12.5 -96.5z" />
<glyph unicode="&#xa8;" horiz-adv-x="761" d="M39 1348q48 85 133 131q81 -46 127 -127q-51 -85 -133 -131q-83 44 -127 127zM471 1348q48 85 133 131q81 -46 127 -127q-51 -85 -133 -131q-83 44 -127 127z" />
<glyph unicode="&#xa9;" horiz-adv-x="1843" d="M133 741q0 159 62 304.5t167.5 252.5t252 170.5t307.5 63.5t307.5 -63.5t251.5 -170.5t167 -252.5t62 -304.5t-62 -304.5t-167 -252t-251.5 -170t-307.5 -63.5t-307.5 63.5t-252 170t-167.5 252t-62 304.5zM262 741q0 -134 50.5 -258.5t137.5 -218.5t210.5 -150.5 t261.5 -56.5q183 0 335.5 96t237 252.5t84.5 335.5t-84.5 335.5t-237 252.5t-335.5 96q-138 0 -261.5 -56.5t-210.5 -150.5t-137.5 -218.5t-50.5 -258.5zM512 750q0 127 68 230t173 157.5t222 54.5q105 0 221 -53l-4 -236l-59 -8l-43 166q-3 1 -14.5 5.5t-14.5 5.5t-13 4.5 t-14.5 4.5t-13.5 3.5t-15.5 3.5t-16 2t-19.5 1.5t-21 0.5q-110 0 -178 -86t-68 -256q0 -180 70 -261t184 -81q67 0 136 16l53 199l61 -11l2 -235q-139 -66 -278 -66q-85 0 -159.5 28.5t-132.5 82t-92 138.5t-34 190z" />
<glyph unicode="&#xaa;" horiz-adv-x="686" d="M51 961q0 62 32.5 99t111.5 60q117 30 249 45v101q0 64 -40.5 95.5t-96.5 31.5q-55 0 -108 -29l-35 -141l-70 12v160q91 45 137 55q40 10 84 10q114 0 187 -46.5t73 -149.5v-379l91 -23l-13 -55h-209v100q-35 -43 -104.5 -76.5t-122.5 -33.5q-71 0 -118.5 43.5 t-47.5 120.5zM184 969q0 -55 25 -75t70 -20q42 0 92 30.5t73 66.5v141q-92 -10 -157 -29q-103 -23 -103 -114z" />
<glyph unicode="&#xab;" horiz-adv-x="1040" d="M82 524v21q83 78 201 220.5t200 264.5l58 -24q-14 -64 -98.5 -216t-163.5 -231l-3 -2v-4v-4q0 -2 3 -2q77 -77 161.5 -245.5t100.5 -238.5l-58 -24q-82 122 -200 264.5t-201 220.5zM489 524v21q89 83 205.5 225.5t186.5 259.5l57 -24q-14 -64 -98.5 -216t-163.5 -231 l-2 -2v-4v-4q0 -2 2 -2q77 -77 161.5 -245.5t100.5 -238.5l-57 -24q-70 117 -186.5 259.5t-205.5 225.5z" />
<glyph unicode="&#xac;" horiz-adv-x="1325" d="M68 700v146h1175v-527h-145v381h-1030z" />
<glyph unicode="&#xad;" horiz-adv-x="634" d="M49 479v146h535v-146h-535z" />
<glyph unicode="&#xae;" horiz-adv-x="1843" d="M133 741q0 159 62 304.5t167.5 252.5t252 170.5t307.5 63.5t307.5 -63.5t251.5 -170.5t167 -252.5t62 -304.5t-62 -304.5t-167 -252t-251.5 -170t-307.5 -63.5t-307.5 63.5t-252 170t-167.5 252t-62 304.5zM262 741q0 -134 50.5 -258.5t137.5 -218.5t210.5 -150.5 t261.5 -56.5q183 0 335.5 96t237 252.5t84.5 335.5t-84.5 335.5t-237 252.5t-335.5 96q-138 0 -261.5 -56.5t-210.5 -150.5t-137.5 -218.5t-50.5 -258.5zM551 326v51l113 43v657l-113 43l16 58h330q346 0 346 -250q0 -145 -151 -211l168 -297l96 -35l-17 -59h-194l-193 376 h-143v-282l113 -35l-9 -59h-362zM809 797h88q34 0 55.5 1.5t49.5 9.5t44 23t27.5 43.5t11.5 69.5q0 38 -11 64t-24.5 39t-42 19.5t-46 7.5t-53.5 1h-11h-88v-278z" />
<glyph unicode="&#xaf;" horiz-adv-x="1073" d="M215 1280v145h643v-145h-643z" />
<glyph unicode="&#xb0;" horiz-adv-x="688" d="M61 1190q0 119 82 202t199 83q118 0 201.5 -83.5t83.5 -201.5q0 -117 -83 -199t-202 -82q-117 0 -199 82t-82 199zM168 1190q0 -74 50 -124t124 -50q75 0 126.5 50.5t51.5 123.5q0 75 -51.5 126.5t-126.5 51.5q-73 0 -123.5 -51.5t-50.5 -126.5z" />
<glyph unicode="&#xb1;" horiz-adv-x="1523" d="M246 45v145h1032v-145h-1032zM246 819v146h438v436h156v-436h438v-146h-438v-459h-156v459h-438z" />
<glyph unicode="&#xb2;" horiz-adv-x="698" d="M82 725v66q41 39 92.5 88t78 74t60.5 58.5t49.5 51t35.5 42.5t27.5 41t15.5 38.5t10 43.5t2 48q0 57 -39 82.5t-101 25.5q-68 0 -116 -36l-43 -134l-52 9v178q43 31 108 53.5t114 22.5q114 0 193 -52.5t79 -154.5q0 -29 -5 -53.5t-22.5 -53.5t-31 -48.5t-51 -58t-61 -61 t-83 -78t-96.5 -90.5h268l21 82l53 -8v-176h-506z" />
<glyph unicode="&#xb3;" horiz-adv-x="741" d="M102 766v190l62 11l37 -125q44 -31 125 -31q170 0 170 137q0 56 -28.5 87t-94.5 44h-68v72h62q52 11 81 44t29 83q0 106 -135 106q-80 0 -123 -28l-33 -123l-61 10v189q113 45 242 45q67 0 121.5 -16.5t93.5 -60t39 -110.5q0 -64 -47 -109.5t-115 -64.5q180 -13 180 -170 q0 -110 -86.5 -168.5t-202.5 -58.5q-124 0 -248 47z" />
<glyph unicode="&#xb4;" horiz-adv-x="434" d="M31 1157l178 375h201l-267 -375h-112z" />
<glyph unicode="&#xb5;" horiz-adv-x="1333" d="M225 -459v1524h185v-664q0 -147 45.5 -198t150.5 -51q84 0 165 29t120 75v809h182v-938l166 -37l-22 -90h-326v135q-64 -78 -160.5 -114.5t-193.5 -36.5q-71 0 -127 20v-463h-185z" />
<glyph unicode="&#xb6;" horiz-adv-x="1107" d="M115 1008q0 98 25 170.5t64.5 115t102.5 68.5t125.5 35.5t145.5 11.5h450v-63l-166 -62v-1532h-112v1575h-150v-774q-60 0 -109.5 5t-101 18t-91 34.5t-75 56.5t-58.5 81.5t-36.5 112.5t-13.5 147z" />
<glyph unicode="&#xb7;" horiz-adv-x="632" d="M143 621q54 97 152 149q93 -52 145 -145q-58 -98 -151 -150q-96 50 -146 146z" />
<glyph unicode="&#xb8;" horiz-adv-x="653" d="M133 -430q40 10 68.5 19t63.5 25t56 40.5t25 54.5q11 65 -9 110t-77 56v156h113v-97q147 -19 147 -157q0 -61 -35.5 -112.5t-92 -83.5t-120 -50.5t-125.5 -22.5z" />
<glyph unicode="&#xb9;" horiz-adv-x="630" d="M102 1309v57q64 23 244 111h64v-662l118 -31l-10 -57h-366v47l124 41v531z" />
<glyph unicode="&#xba;" horiz-adv-x="808" d="M61 1096q0 170 85.5 274.5t259.5 104.5q88 0 154.5 -29t107 -81t60.5 -119.5t20 -149.5q0 -164 -85 -266.5t-255 -102.5q-175 0 -261 102t-86 267zM213 1098q0 -129 53.5 -211t153.5 -82q89 0 134.5 78.5t45.5 212.5t-51.5 217.5t-161.5 83.5q-50 0 -85 -21.5t-54 -63 t-27 -93t-8 -121.5z" />
<glyph unicode="&#xbb;" horiz-adv-x="1040" d="M102 63q16 70 101 238.5t162 245.5v2q0 2 2 4q0 1 -1 2t-1 2v2q-79 79 -164 231t-99 216l58 24q70 -117 186.5 -259.5t204.5 -225.5v-21q-88 -83 -204.5 -225.5t-186.5 -259.5zM500 63q16 70 100.5 238.5t161.5 245.5v2q0 2 2 4q0 1 -1 2t-1 2v2q-79 79 -163.5 231 t-98.5 216l57 24q72 -116 192 -259t209 -226v-21q-89 -83 -209 -226t-192 -259z" />
<glyph unicode="&#xbc;" horiz-adv-x="1544" d="M51 1227v57q64 23 244 111h63v-662l119 -31l-10 -57h-367v47l125 41v531zM322 -66l790 1457h154l-791 -1457h-153zM885 156v49l422 547h75v-508h101v-88h-101v-78l101 -31l-13 -47h-325v37l115 41v78h-375zM1036 244h224v288z" />
<glyph unicode="&#xbd;" horiz-adv-x="1628" d="M51 1227v57q64 23 244 111l63 -4v-658l119 -31l-10 -57h-367v47l125 41v531zM322 -66l790 1457h154l-791 -1457h-153zM1053 0v66q43 41 102.5 97t85 81t62.5 61.5t50.5 54.5t32 44.5t23.5 46.5t9.5 45t4.5 55q0 108 -139 108q-69 0 -117 -36l-43 -134l-51 9v178 q43 31 107.5 53.5t113.5 22.5q114 0 193.5 -52.5t79.5 -154.5q0 -29 -5 -53.5t-22.5 -53.5t-31 -48.5t-51 -58t-61 -61t-83 -78t-96.5 -90.5h268l20 82l54 -8v-176h-506z" />
<glyph unicode="&#xbe;" horiz-adv-x="1607" d="M51 694v191l62 10l37 -125q44 -31 124 -31q170 0 170 138q0 56 -28.5 87t-93.5 44h-68v71h61q52 11 81.5 44t29.5 83q0 107 -135 107q-79 0 -123 -29l-33 -123l-61 10v189q113 45 241 45q49 0 92 -9.5t80.5 -30t59.5 -58t22 -88.5q0 -65 -46.5 -110.5t-114.5 -64.5 q180 -13 180 -170q0 -110 -86.5 -168.5t-202.5 -58.5q-124 0 -248 47zM301 -66l791 1457h153l-790 -1457h-154zM1032 0v66q41 39 92.5 88t78 74t60.5 58.5t49.5 51t35.5 42.5t27.5 41t15.5 38.5t10 43.5t2 48q0 108 -139 108q-69 0 -117 -36l-43 -134l-51 9v178 q43 31 107.5 53.5t113.5 22.5q114 0 193 -52.5t79 -154.5q0 -29 -5 -53.5t-22.5 -53.5t-31 -48.5t-51 -58t-61 -61t-83 -78t-96.5 -90.5h268l21 82l53 -8v-176h-506z" />
<glyph unicode="&#xbf;" horiz-adv-x="980" d="M117 66l63 286l101 -14l16 -213q62 -33 133 -33q87 0 147 51.5t60 145.5q0 53 -34.5 106t-83.5 96.5l-98 87t-83.5 94t-34.5 99.5q0 108 57.5 168.5t151.5 60.5q110 0 164 -86q13 -21 22 -45l-73 -57q-27 74 -80 74q-90 0 -90 -101q0 -35 21 -65t55 -54.5t74.5 -50 t81.5 -58.5t75 -72.5t55 -98.5t21 -131t-29 -127t-80 -87.5t-113.5 -48.5t-134.5 -16q-202 0 -364 89zM344 1323q50 95 145 145q96 -53 152 -149q-52 -93 -145 -145q-98 52 -152 149z" />
<glyph unicode="&#xc0;" horiz-adv-x="1374" d="M-18 0v72l145 51l494 1311h149l500 -1307l143 -35l-20 -92h-471v72l145 45l-131 334h-563l-125 -328l166 -31l-21 -92h-411zM315 1905h201l219 -344h-112zM414 563h481l-242 633z" />
<glyph unicode="&#xc1;" horiz-adv-x="1380" d="M-20 0v72l145 51l493 1311h150l500 -1307l143 -35l-20 -92h-471v72l145 45l-131 334h-563l-125 -328l166 -31l-21 -92h-411zM412 563h481l-242 633zM643 1526l178 375h201l-266 -375h-113z" />
<glyph unicode="&#xc2;" horiz-adv-x="1380" d="M-20 0v72l145 51l493 1311h150l500 -1307l143 -35l-20 -92h-471v72l145 45l-131 334h-563l-125 -328l166 -31l-21 -92h-411zM385 1536l238 367v2h145l-2 -2l240 -367h-113l-199 268l-196 -268h-113zM412 563h481l-242 633z" />
<glyph unicode="&#xc3;" horiz-adv-x="1380" d="M-20 0v72l145 51l493 1311h150l500 -1307l143 -35l-20 -92h-471v72l145 45l-131 334h-563l-125 -328l166 -31l-21 -92h-411zM332 1659q16 25 84.5 100t107.5 92q79 40 226 -59q8 -5 26 -17t29 -19t26 -14.5t28 -10t24 -0.5q20 3 78 61l57 55l63 -67q-16 -26 -84.5 -101 t-107.5 -92q-78 -39 -225 60q-7 5 -25.5 17t-29.5 18.5t-26.5 14.5t-28.5 10.5t-24 0.5q-28 -12 -77 -61l-58 -56zM412 563h481l-242 633z" />
<glyph unicode="&#xc4;" horiz-adv-x="1380" d="M-20 0v72l145 51l493 1311h150l500 -1307l143 -35l-20 -92h-471v72l145 45l-131 334h-563l-125 -328l166 -31l-21 -92h-411zM354 1716q48 85 133 131q81 -46 127 -127q-51 -85 -133 -131q-83 44 -127 127zM412 563h481l-242 633zM786 1716q47 84 134 131q81 -46 127 -127 q-50 -84 -134 -131q-83 44 -127 127z" />
<glyph unicode="&#xc5;" horiz-adv-x="1380" d="M-20 0v72l145 51l493 1311h150l500 -1307l143 -35l-20 -92h-471v72l145 45l-131 334h-563l-125 -328l166 -31l-21 -92h-411zM412 563h481l-242 633zM455 1749q0 100 69 170t168 70q100 0 170 -70t70 -170t-70 -169t-170 -69t-168.5 69t-68.5 169zM555 1749q0 -76 35 -117 t102 -41q68 0 103.5 41t35.5 117q0 160 -139 160q-67 0 -102 -41t-35 -119z" />
<glyph unicode="&#xc6;" horiz-adv-x="1871" d="M-102 0v72l135 51l778 1194l-123 24l21 93h1048v-347l-102 -10l-66 244h-438v-520l285 8l55 137h72v-403h-58l-69 135l-285 10v-575h477l66 237l106 -12v-338h-1048v72l194 59v516h-436l-342 -524l166 -31l-21 -92h-415zM584 760h362v557z" />
<glyph unicode="&#xc7;" horiz-adv-x="1343" d="M92 715q0 169 62.5 310.5t168.5 234.5t243.5 144.5t289.5 51.5q193 0 377 -84v-346l-103 -20l-69 288q-79 49 -240 49q-101 0 -192 -39t-163.5 -113.5t-115.5 -197.5t-43 -278q0 -168 42.5 -291t118 -193t168 -102.5t204.5 -32.5q119 0 233 56l74 313l104 -21v-346 q-111 -54 -217 -85t-243 -31q-142 0 -267 48t-222 137.5t-153.5 231t-56.5 316.5zM559 -430q40 10 68.5 19t63.5 25t56 40.5t25 54.5q11 65 -9 110t-77 56v156h113v-97q147 -19 147 -157q0 -61 -35.5 -112.5t-92 -83.5t-120 -50.5t-125.5 -22.5z" />
<glyph unicode="&#xc8;" horiz-adv-x="1273" d="M72 0v72l194 59v1172l-194 38l20 93h1047v-336l-103 -21l-65 244h-500v-520l346 8l55 137l72 -20v-363l-57 -20l-70 135l-346 10v-575h539l65 237l107 -22v-328h-1110zM309 1905h201l219 -344h-113z" />
<glyph unicode="&#xc9;" horiz-adv-x="1273" d="M72 0v72l194 59v1172l-194 38l20 93h1047v-336l-103 -21l-65 244h-500v-520l346 8l55 137l72 -20v-363l-57 -20l-70 135l-346 10v-575h539l65 237l107 -22v-328h-1110zM598 1518l168 309h201l-256 -309h-113z" />
<glyph unicode="&#xca;" horiz-adv-x="1273" d="M72 0v72l194 59v1172l-194 38l20 93h1047v-336l-103 -21l-65 244h-500v-520l346 8l55 137l72 -20v-363l-57 -20l-70 135l-346 10v-575h539l65 237l107 -22v-328h-1110zM362 1536l238 367v2h145l-2 -2l240 -367h-113l-198 268l-197 -268h-113z" />
<glyph unicode="&#xcb;" horiz-adv-x="1273" d="M72 0v72l194 59v1172l-194 38l20 93h1047v-336l-103 -21l-65 244h-500v-520l346 8l55 137l72 -20v-363l-57 -20l-70 135l-346 10v-575h539l65 237l107 -22v-328h-1110zM274 1716q47 84 134 131q81 -46 127 -127q-50 -84 -134 -131q-83 44 -127 127zM707 1716 q48 85 133 131q81 -46 127 -127q-51 -85 -133 -131q-83 44 -127 127z" />
<glyph unicode="&#xcc;" horiz-adv-x="737" d="M4 1905h201l219 -344h-113zM72 0v72l194 59v1172l-194 38l20 93h574v-72l-195 -59v-1172l195 -39l-21 -92h-573z" />
<glyph unicode="&#xcd;" horiz-adv-x="737" d="M72 0v72l194 59v1172l-194 38l20 93h574v-72l-195 -59v-1172l195 -39l-21 -92h-573zM319 1526l179 375h200l-266 -375h-113z" />
<glyph unicode="&#xce;" horiz-adv-x="737" d="M68 1536l237 367v2h146l-2 -2l239 -367h-113l-198 268l-197 -268h-112zM72 0v72l194 59v1172l-194 38l20 93h574v-72l-195 -59v-1172l195 -39l-21 -92h-573z" />
<glyph unicode="&#xcf;" horiz-adv-x="737" d="M23 1716q48 85 133 131q81 -46 127 -127q-51 -85 -133 -131q-83 44 -127 127zM72 0v72l194 59v1172l-194 38l20 93h574v-72l-195 -59v-1172l195 -39l-21 -92h-573zM455 1716q48 85 133 131q81 -46 127 -127q-51 -85 -133 -131q-83 44 -127 127z" />
<glyph unicode="&#xd0;" horiz-adv-x="1482" d="M72 0v72l194 59v547h-192v133h192v492l-194 38l20 93h584q173 0 311 -57t225.5 -156.5t133 -229t45.5 -278.5q0 -148 -48 -277t-137 -226.5t-225.5 -153.5t-304.5 -56h-604zM471 113h170q252 0 393.5 160.5t141.5 439.5q0 288 -131 448t-404 160h-170v-510h215v-133h-215 v-565z" />
<glyph unicode="&#xd1;" horiz-adv-x="1595" d="M61 0v72l195 59v1172l-195 38l21 93h297l838 -1112v981l-193 38l20 93h490v-72l-195 -59v-1303h-122l-838 1114v-983l194 -39l-20 -92h-492zM424 1659q16 25 84.5 100t107.5 92q79 40 226 -59q8 -5 26 -17t29 -19t26 -14.5t28 -10t24 -0.5q20 3 78 61l57 55l64 -67 q-16 -25 -85 -100.5t-108 -92.5q-78 -39 -225 60q-8 5 -26 17t-29 19t-26 14.5t-28 10t-24 0.5q-30 -13 -78 -61l-58 -56z" />
<glyph unicode="&#xd2;" d="M92 719q0 154 48.5 289.5t136 236.5t218.5 159t289 58q132 0 245.5 -40t195 -110t139.5 -164.5t86.5 -204t28.5 -228.5q0 -207 -82.5 -375t-242 -268.5t-368.5 -100.5q-165 0 -299.5 61.5t-219 165.5t-130 238t-45.5 283zM307 754q0 -104 18 -199.5t57.5 -182t97 -150 t142.5 -101t187 -37.5q132 0 237.5 84t161.5 219.5t56 292.5q0 104 -18 199.5t-57.5 182t-97 150t-142.5 101t-187 37.5q-132 0 -237.5 -84t-161.5 -219.5t-56 -292.5zM453 1905h200l219 -344h-112z" />
<glyph unicode="&#xd3;" d="M92 719q0 154 48.5 289.5t136 236.5t218.5 159t289 58q132 0 245.5 -40t195 -110t139.5 -164.5t86.5 -204t28.5 -228.5q0 -207 -82.5 -375t-242 -268.5t-368.5 -100.5q-165 0 -299.5 61.5t-219 165.5t-130 238t-45.5 283zM307 754q0 -104 18 -199.5t57.5 -182t97 -150 t142.5 -101t187 -37.5q132 0 237.5 84t161.5 219.5t56 292.5q0 104 -18 199.5t-57.5 182t-97 150t-142.5 101t-187 37.5q-132 0 -237.5 -84t-161.5 -219.5t-56 -292.5zM719 1526l178 375h201l-267 -375h-112z" />
<glyph unicode="&#xd4;" d="M92 719q0 154 48.5 289.5t136 236.5t218.5 159t289 58q132 0 245.5 -40t195 -110t139.5 -164.5t86.5 -204t28.5 -228.5q0 -207 -82.5 -375t-242 -268.5t-368.5 -100.5q-165 0 -299.5 61.5t-219 165.5t-130 238t-45.5 283zM307 754q0 -104 18 -199.5t57.5 -182t97 -150 t142.5 -101t187 -37.5q132 0 237.5 84t161.5 219.5t56 292.5q0 104 -18 199.5t-57.5 182t-97 150t-142.5 101t-187 37.5q-132 0 -237.5 -84t-161.5 -219.5t-56 -292.5zM465 1536l237 367v2h146l-2 -2l239 -367h-112l-199 268l-196 -268h-113z" />
<glyph unicode="&#xd5;" d="M92 719q0 154 48.5 289.5t136 236.5t218.5 159t289 58q132 0 245.5 -40t195 -110t139.5 -164.5t86.5 -204t28.5 -228.5q0 -207 -82.5 -375t-242 -268.5t-368.5 -100.5q-165 0 -299.5 61.5t-219 165.5t-130 238t-45.5 283zM307 754q0 -104 18 -199.5t57.5 -182t97 -150 t142.5 -101t187 -37.5q132 0 237.5 84t161.5 219.5t56 292.5q0 104 -18 199.5t-57.5 182t-97 150t-142.5 101t-187 37.5q-132 0 -237.5 -84t-161.5 -219.5t-56 -292.5zM401 1659q16 25 85 100t108 92q79 39 225 -59q8 -5 26 -17t29 -19t26 -14.5t28 -10t24 -0.5q20 3 78 61 l57 55l64 -67q-16 -25 -85 -100.5t-108 -92.5q-78 -39 -225 60q-8 5 -26 17t-29 19t-26 14.5t-28 10t-24 0.5q-30 -13 -78 -61l-57 -56z" />
<glyph unicode="&#xd6;" d="M92 719q0 154 48.5 289.5t136 236.5t218.5 159t289 58q132 0 245.5 -40t195 -110t139.5 -164.5t86.5 -204t28.5 -228.5q0 -207 -82.5 -375t-242 -268.5t-368.5 -100.5q-165 0 -299.5 61.5t-219 165.5t-130 238t-45.5 283zM307 754q0 -104 18 -199.5t57.5 -182t97 -150 t142.5 -101t187 -37.5q132 0 237.5 84t161.5 219.5t56 292.5q0 104 -18 199.5t-57.5 182t-97 150t-142.5 101t-187 37.5q-132 0 -237.5 -84t-161.5 -219.5t-56 -292.5zM430 1716q48 85 133 131q81 -46 127 -127q-51 -85 -133 -131q-83 44 -127 127zM862 1716q48 85 133 131 q81 -46 127 -127q-51 -85 -133 -131q-83 44 -127 127z" />
<glyph unicode="&#xd7;" horiz-adv-x="1196" d="M72 1018l104 106l430 -415l400 413l104 -102l-399 -412l413 -401l-104 -107l-414 400l-399 -412l-103 100l398 412z" />
<glyph unicode="&#xd8;" d="M92 719q0 154 48.5 289.5t136 236.5t218.5 159t289 58q168 0 308 -65l88 162l102 -52l-92 -170q140 -103 214.5 -266.5t74.5 -355.5q0 -207 -82.5 -375t-242 -268.5t-368.5 -100.5q-162 0 -297 60l-110 -205l-100 59l108 203q-144 102 -219.5 268t-75.5 363zM307 754 q0 -153 40 -287.5t120 -228.5l557 1032q-118 80 -262 80q-132 0 -237.5 -84t-161.5 -219.5t-56 -292.5zM557 158q107 -74 252 -74q132 0 237.5 84t161.5 219.5t56 292.5q0 147 -39 279.5t-115 228.5z" />
<glyph unicode="&#xd9;" horiz-adv-x="1542" d="M61 1341l21 93h573v-72l-194 -59v-828q0 -190 99.5 -286.5t287.5 -96.5q73 0 130 15.5t93.5 35.5t62 61t38 70.5t19 86t7 85t0.5 90.5v29l-4 738l-195 38l21 93h491v-72l-174 -59v-781q0 -56 -4.5 -106t-18.5 -106.5t-36.5 -102t-61 -89t-89 -73t-124 -47.5t-163.5 -18 q-295 0 -439.5 118t-144.5 379v826zM416 1905h200l220 -344h-113z" />
<glyph unicode="&#xda;" horiz-adv-x="1542" d="M61 1341l21 93h573v-72l-194 -59v-828q0 -190 99.5 -286.5t287.5 -96.5q73 0 130 15.5t93.5 35.5t62 61t38 70.5t19 86t7 85t0.5 90.5v29l-4 738l-195 38l21 93h491v-72l-174 -59v-781q0 -56 -4.5 -106t-18.5 -106.5t-36.5 -102t-61 -89t-89 -73t-124 -47.5t-163.5 -18 q-295 0 -439.5 118t-144.5 379v826zM692 1526l178 375h201l-266 -375h-113z" />
<glyph unicode="&#xdb;" horiz-adv-x="1542" d="M61 1341l21 93h573v-72l-194 -59v-828q0 -190 99.5 -286.5t287.5 -96.5q73 0 130 15.5t93.5 35.5t62 61t38 70.5t19 86t7 85t0.5 90.5v29l-4 738l-195 38l21 93h491v-72l-174 -59v-781q0 -56 -4.5 -106t-18.5 -106.5t-36.5 -102t-61 -89t-89 -73t-124 -47.5t-163.5 -18 q-295 0 -439.5 118t-144.5 379v826zM449 1536l237 367v2h145l-2 -2l240 -367h-113l-198 268l-197 -268h-112z" />
<glyph unicode="&#xdc;" horiz-adv-x="1542" d="M61 1341l21 93h573v-72l-194 -59v-828q0 -190 99.5 -286.5t287.5 -96.5q73 0 130 15.5t93.5 35.5t62 61t38 70.5t19 86t7 85t0.5 90.5v29l-4 738l-195 38l21 93h491v-72l-174 -59v-781q0 -56 -4.5 -106t-18.5 -106.5t-36.5 -102t-61 -89t-89 -73t-124 -47.5t-163.5 -18 q-295 0 -439.5 118t-144.5 379v826zM424 1716q48 85 133 131q81 -46 127 -127q-51 -85 -133 -131q-83 44 -127 127zM856 1716q48 85 133 131q81 -46 127 -127q-51 -85 -133 -131q-83 44 -127 127z" />
<glyph unicode="&#xdd;" horiz-adv-x="1290" d="M-31 1341l21 93h502v-72l-144 -41l357 -557l339 553l-151 24l20 93h428v-72l-165 -57l-402 -652v-522l195 -39l-21 -92h-573v72l194 59v479l-440 693zM647 1526l178 375h201l-266 -375h-113z" />
<glyph unicode="&#xde;" horiz-adv-x="1161" d="M72 0v72l194 59v1172l-194 38l20 93h574v-72l-195 -59v-146h152q238 0 372.5 -104.5t134.5 -288.5q0 -84 -30.5 -161.5t-88.5 -140.5t-153.5 -100.5t-214.5 -37.5h-172v-193l236 -39l-21 -92h-614zM471 436h90q193 0 279 81t86 245q0 118 -92 200t-232 82h-131v-608z" />
<glyph unicode="&#xdf;" horiz-adv-x="1347" d="M20 0v61l179 62l2 1057q0 99 35.5 172t98 115.5t140 62.5t170.5 20q188 0 301 -88.5t113 -253.5q0 -105 -70 -204q-99 -36 -130 -55q-81 -49 -81 -130q0 -50 30.5 -89t78.5 -65.5t106.5 -50.5t117.5 -51.5t107 -60.5t78.5 -85.5t30.5 -119.5q0 -87 -33.5 -151t-92.5 -99 t-128 -51t-151 -16q-199 0 -355 69v275l107 18l55 -203q61 -26 100 -36.5t95 -10.5q96 0 153.5 43t57.5 131q0 42 -23.5 76.5t-62 57t-87.5 45.5t-100.5 42t-100.5 47.5t-87.5 60.5t-62 81.5t-23.5 111.5q0 53 22 99t59.5 79t78.5 56t88 39q30 40 30 151q0 96 -60.5 163 t-180.5 67q-104 0 -173 -63t-69 -201v-1178h-363z" />
<glyph unicode="&#xe0;" horiz-adv-x="1099" d="M92 252q0 106 54 169t184 97q200 53 397 74v168q0 109 -57.5 160t-151.5 51q-113 0 -192 -29l-58 -233l-106 18v266q203 90 366 90q84 0 150.5 -16.5t120 -53t83 -101.5t29.5 -154v-629l148 -35l-21 -94h-311v166q-62 -74 -168 -128t-194 -54q-114 0 -193.5 72t-79.5 196 zM193 1536h200l219 -344h-112zM297 268q0 -89 41.5 -122t112.5 -33q70 0 153.5 50.5t122.5 108.5v234q-173 -20 -262 -45q-168 -46 -168 -193z" />
<glyph unicode="&#xe1;" horiz-adv-x="1099" d="M92 252q0 106 54 169t184 97q200 53 397 74v168q0 109 -57.5 160t-151.5 51q-113 0 -192 -29l-58 -233l-106 18v266q203 90 366 90q84 0 150.5 -16.5t120 -53t83 -101.5t29.5 -154v-629l148 -35l-21 -94h-311v166q-62 -74 -168 -128t-194 -54q-114 0 -193.5 72t-79.5 196 zM297 268q0 -89 41.5 -122t112.5 -33q70 0 153.5 50.5t122.5 108.5v234q-173 -20 -262 -45q-168 -46 -168 -193zM455 1192l219 344h200l-307 -344h-112z" />
<glyph unicode="&#xe2;" horiz-adv-x="1099" d="M92 252q0 106 54 169t184 97q200 53 397 74v168q0 109 -57.5 160t-151.5 51q-113 0 -192 -29l-58 -233l-106 18v266q203 90 366 90q84 0 150.5 -16.5t120 -53t83 -101.5t29.5 -154v-629l148 -35l-21 -94h-311v166q-62 -74 -168 -128t-194 -54q-114 0 -193.5 72t-79.5 196 zM217 1167l238 367v2h145l-2 -2l240 -367h-113l-199 269l-196 -269h-113zM297 268q0 -89 41.5 -122t112.5 -33q70 0 153.5 50.5t122.5 108.5v234q-173 -20 -262 -45q-168 -46 -168 -193z" />
<glyph unicode="&#xe3;" horiz-adv-x="1099" d="M92 252q0 106 54 169t184 97q200 53 397 74v168q0 109 -57.5 160t-151.5 51q-113 0 -192 -29l-58 -233l-106 18v266q203 90 366 90q84 0 150.5 -16.5t120 -53t83 -101.5t29.5 -154v-629l148 -35l-21 -94h-311v166q-62 -74 -168 -128t-194 -54q-114 0 -193.5 72t-79.5 196 zM176 1290q16 25 85 100.5t108 92.5q78 39 225 -60q8 -5 26 -17t29 -19t26 -14.5t28 -10t24 -0.5q20 3 78 61l57 56l64 -68q-16 -25 -85 -100t-108 -92q-79 -39 -225 59q-8 5 -26 17t-29 19t-26 14.5t-28 10t-24 0.5q-30 -13 -78 -61l-57 -55zM297 268q0 -89 41.5 -122 t112.5 -33q70 0 153.5 50.5t122.5 108.5v234q-173 -20 -262 -45q-168 -46 -168 -193z" />
<glyph unicode="&#xe4;" horiz-adv-x="1099" d="M92 252q0 106 54 169t184 97q200 53 397 74v168q0 109 -57.5 160t-151.5 51q-113 0 -192 -29l-58 -233l-106 18v266q203 90 366 90q84 0 150.5 -16.5t120 -53t83 -101.5t29.5 -154v-629l148 -35l-21 -94h-311v166q-62 -74 -168 -128t-194 -54q-114 0 -193.5 72t-79.5 196 zM193 1348q48 85 133 131q81 -46 127 -127q-50 -84 -134 -131q-82 43 -126 127zM297 268q0 -89 41.5 -122t112.5 -33q70 0 153.5 50.5t122.5 108.5v234q-173 -20 -262 -45q-168 -46 -168 -193zM625 1348q48 85 133 131q81 -46 127 -127q-51 -85 -133 -131q-83 44 -127 127z " />
<glyph unicode="&#xe5;" horiz-adv-x="1099" d="M92 252q0 106 54 169t184 97q200 53 397 74v168q0 109 -57.5 160t-151.5 51q-113 0 -192 -29l-58 -233l-106 18v266q203 90 366 90q84 0 150.5 -16.5t120 -53t83 -101.5t29.5 -154v-629l148 -35l-21 -94h-311v166q-62 -74 -168 -128t-194 -54q-114 0 -193.5 72t-79.5 196 zM297 268q0 -89 41.5 -122t112.5 -33q70 0 153.5 50.5t122.5 108.5v234q-173 -20 -262 -45q-168 -46 -168 -193zM319 1417q0 100 69 170t169 70t170 -70t70 -170q0 -99 -70 -168t-170 -69t-169 68.5t-69 168.5zM420 1417q0 -76 35 -116.5t102 -40.5q68 0 103.5 40.5 t35.5 116.5q0 160 -139 160q-67 0 -102 -41t-35 -119z" />
<glyph unicode="&#xe6;" horiz-adv-x="1703" d="M92 252q0 106 54 169t184 97q200 53 397 74v168q0 109 -57.5 160t-151.5 51q-113 0 -192 -29l-58 -233l-106 18v266q203 90 366 90q115 0 191.5 -33t116.5 -108q145 139 338 139q438 0 438 -532h-727q0 -198 102.5 -316t261.5 -118q148 0 301 100l45 -78 q-198 -155 -415 -155q-139 0 -234.5 68t-148.5 186q-3 -4 -10 -12q-34 -41 -54.5 -64t-64 -61.5t-83 -59.5t-98 -38t-122.5 -17q-114 0 -193.5 72t-79.5 196zM297 268q0 -89 41.5 -122t112.5 -33q70 0 153.5 50.5t122.5 108.5v234q-173 -20 -262 -45q-168 -46 -168 -193z M891 659h516q0 152 -70 232t-170 80q-105 0 -188.5 -85t-87.5 -227z" />
<glyph unicode="&#xe7;" horiz-adv-x="1019" d="M82 532q0 127 46 233t122.5 174.5t173.5 106t203 37.5q174 0 325 -96v-272l-102 -21l-57 242q-90 35 -160 35q-152 0 -249 -121t-97 -303q0 -84 21 -160.5t62.5 -138.5t109.5 -98.5t155 -36.5q71 0 154.5 27t144.5 73l45 -78q-166 -158 -383 -158q-105 0 -198 37.5 t-163.5 106.5t-111.5 175.5t-41 235.5zM383 -442q40 10 68.5 19t63.5 25t56 40.5t25 54.5q11 65 -9 110t-77 56v155h113v-96q147 -19 147 -158q0 -61 -35.5 -112.5t-92 -83t-120 -50t-125.5 -22.5z" />
<glyph unicode="&#xe8;" horiz-adv-x="1107" d="M82 537q0 130 43.5 236.5t115 172t157.5 100.5t177 35q439 0 439 -532h-727q0 -198 102.5 -316t261.5 -118q148 0 301 100l45 -78q-198 -155 -415 -155q-102 0 -192 37.5t-159 106.5t-109 175.5t-40 235.5zM217 1536h201l219 -344h-113zM293 659h516q0 152 -70 232 t-170 80q-105 0 -188.5 -85t-87.5 -227z" />
<glyph unicode="&#xe9;" horiz-adv-x="1107" d="M82 537q0 130 43.5 236.5t115 172t157.5 100.5t177 35q439 0 439 -532h-727q0 -198 102.5 -316t261.5 -118q148 0 301 100l45 -78q-198 -155 -415 -155q-102 0 -192 37.5t-159 106.5t-109 175.5t-40 235.5zM293 659h516q0 152 -70 232t-170 80q-105 0 -188.5 -85 t-87.5 -227zM512 1157l178 375h201l-266 -375h-113z" />
<glyph unicode="&#xea;" horiz-adv-x="1107" d="M82 537q0 130 43.5 236.5t115 172t157.5 100.5t177 35q439 0 439 -532h-727q0 -198 102.5 -316t261.5 -118q148 0 301 100l45 -78q-198 -155 -415 -155q-102 0 -192 37.5t-159 106.5t-109 175.5t-40 235.5zM279 1167l237 369h146l-3 -2l240 -367h-113l-198 269l-197 -269 h-112zM293 659h516q0 152 -70 232t-170 80q-105 0 -188.5 -85t-87.5 -227z" />
<glyph unicode="&#xeb;" horiz-adv-x="1107" d="M82 537q0 130 43.5 236.5t115 172t157.5 100.5t177 35q439 0 439 -532h-727q0 -198 102.5 -316t261.5 -118q148 0 301 100l45 -78q-198 -155 -415 -155q-102 0 -192 37.5t-159 106.5t-109 175.5t-40 235.5zM227 1348q48 85 133 131q81 -46 127 -127q-51 -85 -133 -131 q-83 44 -127 127zM293 659h516q0 152 -70 232t-170 80q-105 0 -188.5 -85t-87.5 -227zM659 1348q47 84 134 131q81 -46 127 -127q-50 -84 -134 -131q-83 44 -127 127z" />
<glyph unicode="&#xec;" horiz-adv-x="641" d="M-20 1536h200l219 -344h-112zM72 0v61l180 62v792l-166 31l-10 84l360 49v-952l154 -29l-21 -98h-497z" />
<glyph unicode="&#xed;" horiz-adv-x="641" d="M72 0v61l180 62v792l-166 31l-10 84l360 49v-952l154 -29l-21 -98h-497zM285 1157l178 375h201l-267 -375h-112z" />
<glyph unicode="&#xee;" horiz-adv-x="641" d="M31 1167l237 367v2h146l-2 -2l239 -367h-112l-199 269l-197 -269h-112zM72 0v61l180 62v792l-166 31l-10 84l360 49v-952l154 -29l-21 -98h-497z" />
<glyph unicode="&#xef;" horiz-adv-x="641" d="M-6 1348q48 85 133 131q81 -46 127 -127q-51 -85 -133 -131q-83 44 -127 127zM72 0v61l180 62v792l-166 31l-10 84l360 49v-952l154 -29l-21 -98h-497zM426 1348q48 85 133 131q81 -46 127 -127q-51 -85 -133 -131q-83 44 -127 127z" />
<glyph unicode="&#xf0;" horiz-adv-x="1204" d="M82 528q0 109 35.5 208.5t101 177.5t168 124.5t225.5 46.5q109 0 236 -57q-5 87 -75.5 208.5t-158.5 168.5l-155 -129l-72 86l133 111q-61 30 -180 43q-66 4 -96 4v94l24 1q23 1 55 2t54 1q139 -6 250 -57l157 133l72 -86l-129 -107q173 -100 263.5 -308.5t90.5 -479.5 q0 -172 -42.5 -313t-114.5 -230.5t-162.5 -137.5t-190.5 -48q-120 0 -214.5 43t-153.5 118t-90 172.5t-31 210.5zM287 551q0 -209 72 -332t214 -123q62 0 111.5 29.5t81.5 82t55 115.5t34.5 140.5t16.5 146t5 142.5q0 6 -7 122l-6 54q-99 45 -250 45q-84 0 -148 -34.5 t-102.5 -94t-57.5 -134t-19 -159.5z" />
<glyph unicode="&#xf1;" horiz-adv-x="1294" d="M72 1030l362 49v-168q66 81 165 126.5t189 45.5q310 0 310 -376l2 -580l164 -35l-21 -92h-485v61l157 62v543q0 147 -45.5 198t-150.5 51q-84 0 -165 -29t-120 -75v-684l156 -29l-21 -98h-495v61l178 62v784l-170 33zM299 1290q16 25 85 100.5t108 92.5q78 39 225 -60 q8 -5 26 -17t29 -19t26 -14.5t28 -10t24 -0.5q20 3 78 61l57 56l64 -68q-16 -25 -85 -100t-108 -92q-79 -39 -225 59q-8 5 -26 17t-29 19t-26 14.5t-28 10t-24 0.5q-30 -13 -78 -61l-58 -55z" />
<glyph unicode="&#xf2;" horiz-adv-x="1216" d="M82 528q0 105 34.5 203.5t97 178t161 127.5t217.5 48q133 0 239.5 -46t171 -123.5t98.5 -173.5t34 -201t-34.5 -203.5t-97 -178t-161 -127.5t-217.5 -48q-133 0 -239.5 46t-171 123.5t-98.5 173.5t-34 201zM244 1536h200l220 -344h-113zM287 551q0 -71 10 -134t34.5 -123 t62 -103t96.5 -69t133 -26q64 0 116 23.5t87 63.5t59 94.5t34.5 114.5t10.5 126q0 71 -10 134t-34.5 123t-62 103t-96.5 69t-133 26q-64 0 -116 -23.5t-87 -63.5t-59 -94.5t-34.5 -114.5t-10.5 -126z" />
<glyph unicode="&#xf3;" horiz-adv-x="1216" d="M82 528q0 105 34.5 203.5t97 178t161 127.5t217.5 48q133 0 239.5 -46t171 -123.5t98.5 -173.5t34 -201t-34.5 -203.5t-97 -178t-161 -127.5t-217.5 -48q-133 0 -239.5 46t-171 123.5t-98.5 173.5t-34 201zM287 551q0 -71 10 -134t34.5 -123t62 -103t96.5 -69t133 -26 q64 0 116 23.5t87 63.5t59 94.5t34.5 114.5t10.5 126q0 71 -10 134t-34.5 123t-62 103t-96.5 69t-133 26q-64 0 -116 -23.5t-87 -63.5t-59 -94.5t-34.5 -114.5t-10.5 -126zM545 1157l178 375h201l-267 -375h-112z" />
<glyph unicode="&#xf4;" horiz-adv-x="1216" d="M82 528q0 105 34.5 203.5t97 178t161 127.5t217.5 48q133 0 239.5 -46t171 -123.5t98.5 -173.5t34 -201t-34.5 -203.5t-97 -178t-161 -127.5t-217.5 -48q-133 0 -239.5 46t-171 123.5t-98.5 173.5t-34 201zM287 551q0 -71 10 -134t34.5 -123t62 -103t96.5 -69t133 -26 q64 0 116 23.5t87 63.5t59 94.5t34.5 114.5t10.5 126q0 71 -10 134t-34.5 123t-62 103t-96.5 69t-133 26q-64 0 -116 -23.5t-87 -63.5t-59 -94.5t-34.5 -114.5t-10.5 -126zM295 1167l237 367v2h146l-2 -2l239 -367h-112l-199 269l-196 -269h-113z" />
<glyph unicode="&#xf5;" horiz-adv-x="1216" d="M82 528q0 105 34.5 203.5t97 178t161 127.5t217.5 48q133 0 239.5 -46t171 -123.5t98.5 -173.5t34 -201t-34.5 -203.5t-97 -178t-161 -127.5t-217.5 -48q-133 0 -239.5 46t-171 123.5t-98.5 173.5t-34 201zM252 1290q16 26 84.5 101t107.5 92q79 39 226 -60q8 -5 26 -17 t29 -19t26 -14.5t28 -10t24 -0.5q20 3 78 61l57 56l63 -68q-16 -25 -84.5 -100t-107.5 -92q-79 -39 -225 59q-8 5 -26 17t-29 19t-26 14.5t-28 10t-24 0.5q-30 -13 -78 -61l-58 -55zM287 551q0 -71 10 -134t34.5 -123t62 -103t96.5 -69t133 -26q64 0 116 23.5t87 63.5 t59 94.5t34.5 114.5t10.5 126q0 71 -10 134t-34.5 123t-62 103t-96.5 69t-133 26q-64 0 -116 -23.5t-87 -63.5t-59 -94.5t-34.5 -114.5t-10.5 -126z" />
<glyph unicode="&#xf6;" horiz-adv-x="1216" d="M82 528q0 105 34.5 203.5t97 178t161 127.5t217.5 48q133 0 239.5 -46t171 -123.5t98.5 -173.5t34 -201t-34.5 -203.5t-97 -178t-161 -127.5t-217.5 -48q-133 0 -239.5 46t-171 123.5t-98.5 173.5t-34 201zM258 1348q48 85 133 131q81 -46 127 -127q-51 -85 -133 -131 q-83 44 -127 127zM287 551q0 -71 10 -134t34.5 -123t62 -103t96.5 -69t133 -26q64 0 116 23.5t87 63.5t59 94.5t34.5 114.5t10.5 126q0 71 -10 134t-34.5 123t-62 103t-96.5 69t-133 26q-64 0 -116 -23.5t-87 -63.5t-59 -94.5t-34.5 -114.5t-10.5 -126zM690 1348 q48 85 133 131q81 -46 127 -127q-51 -85 -133 -131q-83 44 -127 127z" />
<glyph unicode="&#xf7;" horiz-adv-x="1810" d="M287 539v157h1237v-157h-1237zM743 213q54 97 152 149q93 -52 145 -145q-57 -97 -151 -149q-97 51 -146 145zM743 1018q54 97 152 149q93 -52 145 -145q-58 -98 -151 -150q-96 50 -146 146z" />
<glyph unicode="&#xf8;" horiz-adv-x="1216" d="M82 528q0 105 34.5 203.5t97 178t161 127.5t217.5 48q122 0 227 -43l74 136l90 -41l-76 -142q112 -76 170 -195.5t58 -258.5q0 -105 -34.5 -203.5t-97 -178t-161 -127.5t-217.5 -48q-133 0 -238 45l-102 -193l-88 49l102 193q-107 76 -162 194t-55 256zM287 551 q0 -216 86 -336l387 715q-75 43 -166 43q-64 0 -116 -23.5t-87 -63.5t-59 -94.5t-34.5 -114.5t-10.5 -126zM449 141q68 -45 174 -45q64 0 116 23.5t87 63.5t59 94.5t34.5 114.5t10.5 126q0 229 -94 344z" />
<glyph unicode="&#xf9;" horiz-adv-x="1304" d="M61 975l21 92h328v-666q0 -147 45.5 -198t150.5 -51q84 0 165 29t120 75v684l-156 29l21 98h317v-940l166 -37l-22 -90h-326v156q-66 -81 -165 -126.5t-189 -45.5q-310 0 -310 376l-2 580zM233 1536h201l219 -344h-112z" />
<glyph unicode="&#xfa;" horiz-adv-x="1304" d="M61 975l21 92h328v-666q0 -147 45.5 -198t150.5 -51q84 0 165 29t120 75v684l-156 29l21 98h317v-940l166 -37l-22 -90h-326v156q-66 -81 -165 -126.5t-189 -45.5q-310 0 -310 376l-2 580zM559 1157l178 375h201l-266 -375h-113z" />
<glyph unicode="&#xfb;" horiz-adv-x="1304" d="M61 975l21 92h328v-666q0 -147 45.5 -198t150.5 -51q84 0 165 29t120 75v684l-156 29l21 98h317v-940l166 -37l-22 -90h-326v156q-66 -81 -165 -126.5t-189 -45.5q-310 0 -310 376l-2 580zM332 1167l237 367v2h146l-2 -2l239 -367h-112l-199 269l-197 -269h-112z" />
<glyph unicode="&#xfc;" horiz-adv-x="1304" d="M61 975l21 92h328v-666q0 -147 45.5 -198t150.5 -51q84 0 165 29t120 75v684l-156 29l21 98h317v-940l166 -37l-22 -90h-326v156q-66 -81 -165 -126.5t-189 -45.5q-310 0 -310 376l-2 580zM299 1348q48 85 133 131q81 -46 127 -127q-51 -85 -133 -131q-83 44 -127 127z M731 1348q48 85 133 131q81 -46 127 -127q-51 -85 -133 -131q-83 44 -127 127z" />
<glyph unicode="&#xfd;" horiz-adv-x="1093" d="M-10 973l20 92h439v-61l-123 -52l254 -628l12 -58l282 680l-124 21l20 98h365v-61l-134 -60q-70 -172 -180 -426t-145 -342q-5 -13 -21.5 -54t-21.5 -54t-19.5 -48.5t-20 -49.5t-18 -44t-19.5 -45t-17.5 -38.5t-18.5 -39.5l-17 -34t-18 -33q-112 -207 -319 -207 q-64 0 -131 20l57 170q60 -14 121 -14q27 0 50 4.5t39.5 10t33 19.5t26.5 23.5t24 32t20.5 34.5t21.5 41.5t23 43.5q2 6 21 51t28 70l-369 903zM510 1157l178 375h201l-266 -375h-113z" />
<glyph unicode="&#xfe;" horiz-adv-x="1257" d="M51 -399l178 61v1653l-166 33l-10 90l361 49v-541q151 137 323 137q175 0 296.5 -145.5t121.5 -372.5q0 -159 -59.5 -288t-172 -205t-257.5 -76q-119 0 -252 53v-383l196 -28l-20 -99h-539v62zM414 203q137 -94 250 -94q133 0 210.5 121t77.5 300q0 184 -73 291t-201 107 q-127 0 -264 -101v-624z" />
<glyph unicode="&#xff;" horiz-adv-x="1103" d="M0 973l20 92h439v-61l-123 -52l254 -628l12 -58l283 680l-125 21l20 98h365v-61l-133 -60q-70 -173 -180.5 -427t-145.5 -341q-133 -333 -190 -440q-21 -36 -43.5 -65t-53 -57t-66.5 -46t-79 -29t-96 -8.5t-113 18.5l57 170q39 -7 71.5 -10t57.5 -3.5t47.5 6t38 11.5 t31 19t25.5 24t23 31t20.5 34t21.5 40t23 43q3 6 21.5 51t27.5 70l-369 903zM279 1348q48 85 133 131q81 -46 127 -127q-51 -85 -133 -131q-83 44 -127 127zM711 1348q48 85 133 131q81 -46 127 -127q-51 -85 -133 -131q-83 44 -127 127z" />
<glyph unicode="&#x152;" horiz-adv-x="2004" d="M92 719q0 154 48.5 289.5t136 236.5t218.5 159t289 58q105 0 211 -28h875v-336l-103 -21l-65 244h-500v-512h346l56 137l71 -20v-363l-57 -20l-70 145h-346v-575h539l65 237l107 -22v-328h-918q-106 -29 -209 -29q-165 0 -299.5 61.5t-219 165.5t-130 238t-45.5 283z M307 754q0 -104 18 -199.5t57.5 -182t97 -150t142.5 -101t187 -37.5q78 0 186 53v1151q-105 62 -233 62q-132 0 -237.5 -84t-161.5 -219.5t-56 -292.5z" />
<glyph unicode="&#x153;" horiz-adv-x="1927" d="M82 528q0 105 34.5 203.5t97 178t161 127.5t217.5 48q142 0 248 -59.5t172 -163.5q69 106 173 162.5t212 56.5q438 0 438 -532h-727q0 -198 103 -316t262 -118q148 0 301 100l45 -78q-198 -155 -416 -155q-121 0 -224.5 57.5t-168.5 165.5q-64 -103 -162.5 -162 t-222.5 -59q-133 0 -239.5 46t-171 123.5t-98.5 173.5t-34 201zM287 551q0 -71 10 -134t34.5 -123t62 -103t96.5 -69t133 -26q64 0 116 23.5t87 63.5t59 94.5t34.5 114.5t10.5 126q0 71 -10 134t-34.5 123t-62 103t-96.5 69t-133 26q-64 0 -116 -23.5t-87 -63.5t-59 -94.5 t-34.5 -114.5t-10.5 -126zM1114 659h516q0 152 -69.5 232t-169.5 80q-105 0 -189 -85t-88 -227z" />
<glyph unicode="&#x2c6;" horiz-adv-x="1071" d="M225 1167l238 367v2h145l-2 -2l240 -367h-113l-198 269l-197 -269h-113z" />
<glyph unicode="&#x2dc;" horiz-adv-x="1705" d="M451 1290q16 26 84.5 101t107.5 92q78 39 225 -60q8 -5 26 -17t29 -19t26 -14.5t28 -10t24 -0.5q20 3 78 61l58 56l63 -68q-16 -25 -84.5 -100t-107.5 -92q-79 -40 -226 59q-8 5 -26 17t-29 19t-26 14.5t-28 10t-24 0.5q-30 -13 -78 -61l-57 -55z" />
<glyph unicode="&#x2000;" horiz-adv-x="994" />
<glyph unicode="&#x2001;" horiz-adv-x="1989" />
<glyph unicode="&#x2002;" horiz-adv-x="994" />
<glyph unicode="&#x2003;" horiz-adv-x="1989" />
<glyph unicode="&#x2004;" horiz-adv-x="663" />
<glyph unicode="&#x2005;" horiz-adv-x="497" />
<glyph unicode="&#x2006;" horiz-adv-x="331" />
<glyph unicode="&#x2007;" horiz-adv-x="331" />
<glyph unicode="&#x2008;" horiz-adv-x="248" />
<glyph unicode="&#x2009;" horiz-adv-x="397" />
<glyph unicode="&#x200a;" horiz-adv-x="110" />
<glyph unicode="&#x2010;" horiz-adv-x="704" d="M102 399v154h500v-154h-500z" />
<glyph unicode="&#x2011;" horiz-adv-x="704" d="M102 399v154h500v-154h-500z" />
<glyph unicode="&#x2012;" horiz-adv-x="704" d="M102 399v154h500v-154h-500z" />
<glyph unicode="&#x2013;" horiz-adv-x="1173" d="M-2 393v156h1176v-156h-1176z" />
<glyph unicode="&#x2014;" horiz-adv-x="2138" d="M0 393v156h2138v-156h-2138z" />
<glyph unicode="&#x2018;" horiz-adv-x="475" d="M74 1087q-16 67 7 167t79.5 186.5t124.5 109.5l41 -51q-66 -46 -90.5 -122t-10.5 -140q97 -51 146 -145q-55 -98 -152 -150q-93 52 -145 145z" />
<glyph unicode="&#x2019;" horiz-adv-x="475" d="M100 1364q54 97 152 149q93 -52 145 -145q16 -68 -7.5 -168t-80 -186t-123.5 -109l-41 51q46 31 73 80.5t30.5 95t-2.5 87.5q-97 51 -146 145z" />
<glyph unicode="&#x201a;" horiz-adv-x="567" d="M109 100q55 99 151 150q94 -52 146 -146q16 -68 -7.5 -167.5t-80 -185.5t-123.5 -109l-41 51q67 45 90.5 120.5t9.5 141.5q-95 50 -145 145z" />
<glyph unicode="&#x201c;" horiz-adv-x="905" d="M72 1085q-16 67 7 167t79.5 186.5t124.5 109.5l41 -51q-66 -46 -90.5 -122t-10.5 -140q97 -51 146 -145q-55 -98 -152 -150q-93 52 -145 145zM514 1085q-16 67 7 167t79.5 186.5t124.5 109.5l41 -51q-66 -46 -90 -122t-10 -140q95 -50 145 -145q-55 -98 -152 -150 q-93 52 -145 145z" />
<glyph unicode="&#x201d;" horiz-adv-x="905" d="M96 1350q54 97 152 149q93 -52 145 -145q16 -68 -7.5 -168t-80 -186t-123.5 -109l-41 51q68 46 91.5 121t9.5 141q-96 50 -146 146zM526 1350q54 97 152 149q93 -52 145 -145q16 -68 -7.5 -168t-80 -186t-123.5 -109l-41 51q68 46 91.5 121t9.5 141q-96 50 -146 146z" />
<glyph unicode="&#x201e;" horiz-adv-x="905" d="M104 166q54 97 152 149q93 -52 145 -145q16 -68 -7.5 -168t-80 -186t-123.5 -109l-40 51q67 45 90.5 120.5t9.5 141.5q-96 50 -146 146zM532 166q54 97 152 149q93 -52 145 -145q16 -68 -7.5 -168t-80 -186t-123.5 -109l-40 51q67 45 90.5 120.5t9.5 141.5 q-96 50 -146 146z" />
<glyph unicode="&#x2022;" horiz-adv-x="1353" d="M348 807q0 137 97 233.5t233 96.5q135 0 231.5 -97t96.5 -233q0 -135 -96.5 -231.5t-231.5 -96.5q-136 0 -233 96.5t-97 231.5z" />
<glyph unicode="&#x202f;" horiz-adv-x="397" />
<glyph unicode="&#x2039;" horiz-adv-x="643" d="M82 524v21q83 78 201 220.5t200 264.5l58 -24q-14 -64 -98.5 -216t-163.5 -231l-3 -2v-4v-4q0 -2 3 -2q77 -77 161.5 -245.5t100.5 -238.5l-58 -24q-82 122 -200 264.5t-201 220.5z" />
<glyph unicode="&#x203a;" horiz-adv-x="612" d="M72 63q16 70 100.5 238.5t161.5 245.5v2q0 2 2 4q0 1 -1 2t-1 2v2q-79 79 -163.5 231t-98.5 216l57 24q72 -116 192 -259t209 -226v-21q-89 -83 -209 -226t-192 -259z" />
<glyph unicode="&#x205f;" horiz-adv-x="497" />
<glyph unicode="&#x20ac;" horiz-adv-x="1169" d="M-133 496l61 112h211q-4 22 -4 105q0 46 2 69h-188l61 113h137q20 147 74.5 257.5t136.5 179t184 102.5t224 34q225 0 416 -125l-156 -325l-102 35l26 264q-99 45 -198 45q-165 0 -258 -108.5t-117 -358.5h516l-62 -113h-460v-69q0 -72 2 -105h424l-62 -112h-350 q65 -402 387 -402q141 0 330 80l26 -92q-230 -109 -419 -109q-221 0 -366 136.5t-189 386.5h-287z" />
</font>
</defs>
</svg>
